<svg width="100" height="76" xmlns="http://www.w3.org/2000/svg" xmlns:xlink="http://www.w3.org/1999/xlink" xml:space="preserve" overflow="hidden"><defs><clipPath id="clip0"><rect x="257" y="157" width="99" height="75"/></clipPath><clipPath id="clip1"><rect x="257" y="157" width="99" height="75"/></clipPath><clipPath id="clip2"><rect x="257" y="157" width="99" height="75"/></clipPath></defs><g transform="translate(-256 -156)"><g><g clip-path="url(#clip0)"><g clip-path="url(#clip1)"><g clip-path="url(#clip2)"><path d="M89.3128 61.4952C88.9312 61.7944 88.5149 61.8209 88.064 61.5749 88.0152 61.5477 87.9653 61.5468 87.9144 61.5717 87.6554 61.6985 87.3816 61.7408 87.0933 61.6985 87.0424 61.6908 86.9953 61.6725 86.9519 61.6432 86.5275 61.3603 85.2657 62.0708 84.9275 62.2952 84.8711 62.3331 84.8668 62.3765 84.9145 62.4253 85.1128 62.6313 85.4141 62.8768 85.8185 63.1619 86.1795 63.4167 86.4522 63.7412 86.6364 64.1358" stroke="#000000" stroke-width="0.325221" stroke-linecap="butt" stroke-linejoin="miter" stroke-miterlimit="4" stroke-opacity="1" fill="none" fill-rule="nonzero" transform="matrix(1 0 0 1.00079 256.78 156.723)"/><path d="M26.9981 60.2839 27.0826 60.3278" stroke="#000000" stroke-width="0.325221" stroke-linecap="butt" stroke-linejoin="miter" stroke-miterlimit="4" stroke-opacity="1" fill="none" fill-rule="nonzero" transform="matrix(1 0 0 1.00079 256.78 156.723)"/><path d="M27.0826 60.3278C27.0229 60.4827 27.0187 60.6009 27.0696 60.6822" stroke="#000000" stroke-width="0.325221" stroke-linecap="butt" stroke-linejoin="miter" stroke-miterlimit="4" stroke-opacity="1" fill="none" fill-rule="nonzero" transform="matrix(1 0 0 1.00079 256.78 156.723)"/><path d="M27.0696 60.6822C27.0371 60.6985 27.009 60.7289 26.9851 60.7733" stroke="#000000" stroke-width="0.325221" stroke-linecap="butt" stroke-linejoin="miter" stroke-miterlimit="4" stroke-opacity="1" fill="none" fill-rule="nonzero" transform="matrix(1 0 0 1.00079 256.78 156.723)"/><path d="M26.9851 60.7733C26.8919 60.8047 26.8399 60.866 26.829 60.957 26.8225 61.0177 26.8457 61.0622 26.8989 61.0904L27.0355 61.1603C27.0802 61.1837 27.1101 61.2282 27.1151 61.279 27.152 61.6432 27.1764 62.0079 27.1883 62.3733 27.2062 62.97 26.8859 63.4155 26.5867 63.8952 26.2029 64.5131 25.546 66.1456 26.1607 66.7586 26.707 67.3033 27.2598 66.9504 27.6924 66.4318 28.2387 65.7748 28.7184 65.0578 29.3232 64.4789 31.3574 62.5277 33.4175 60.8773 34.9378 58.4481 35.1731 58.072 35.424 57.5343 35.6906 56.8351 36.069 55.8444 36.5529 54.7121 37.1427 53.4384 37.495 52.6786 37.7106 52.0666 37.7898 51.6027 38.2337 49.0238 36.4207 46.5214 34.7801 44.6353 33.9497 43.6803 33.1606 42.6976 32.4126 41.6873 32.397 41.6672 32.4013 41.6387 32.4221 41.6236 32.4396 41.6109 32.4642 41.6117 32.4809 41.6255 34.9801 43.7523 37.1703 45.8726 38.4841 48.9474 39.3752 51.0336 38.7752 52.9604 37.437 54.7018 37.3979 54.7527 37.4033 54.7977 37.4532 54.8368 37.6679 55.0059 37.9085 54.9799 38.1394 55.014 40.4299 55.3478 42.7258 55.6346 45.0271 55.8742 45.0803 55.8795 45.1052 55.8558 45.1019 55.8026 44.9198 52.4905 46.0157 49.4157 47.4515 46.4856 47.4621 46.4619 47.4899 46.451 47.5138 46.4616 47.536 46.4715 47.5471 46.4967 47.5393 46.5198 47.0434 48.4059 46.845 50.3702 46.3377 52.2482 46.2109 52.7186 46.1398 53.0909 46.1247 53.3652 46.0694 54.4417 46.0678 55.3994 46.3361 56.4839 46.9393 58.9262 47.6531 60.9131 49.0141 63.3017 49.9063 64.8703 51.2038 66.8274 52.9067 69.1732 53.6287 70.1683 55.1099 70.9195 56.2189 71.3032 56.2925 71.3293 56.3153 71.3054 56.2872 71.2317 55.692 69.726 55.1213 68.2724 54.4595 66.7326 54.1647 66.0453 53.981 65.5077 53.9083 65.1196 53.7408 64.2334 53.4319 63.3391 53.3213 62.5066 53.1262 61.0172 52.8791 58.2562 54.5327 57.3993 56.0059 56.6363 57.4899 56.1355 58.9847 55.8969 59.7273 55.7787 60.3598 55.6481 60.8822 55.5051 62.3001 55.1181 63.2285 55.266 64.196 53.9311 64.3033 53.7847 64.4399 53.7295 64.5684 53.627 64.6497 53.562 64.6518 53.4948 64.5749 53.4254 63.5939 52.5462 62.5429 51.8644 61.4221 51.3799 60.1261 50.8206 57.9814 50.471 56.4254 49.4092 54.3018 47.9604 52.5555 45.1588 49.8742 44.5914 49.8146 44.5795 49.7967 44.5453 49.8206 44.4889 50.0905 43.845 50.5441 43.2515 50.6807 42.5702 50.7962 41.9963 50.9929 41.3589 50.9913 40.8044 50.9892 40.0358 50.8531 39.2841 50.5832 38.5492 50.5625 38.4939 50.523 38.4651 50.4645 38.463 50.1685 38.4521 49.9198 38.3324 49.7181 38.1036 49.6791 38.0581 49.6763 38.0109 49.71 37.9622 50.1637 37.3036 51.2921 37.0093 52.0287 36.7996 52.1002 36.7789 52.1035 36.7513 52.0384 36.7167 50.8828 36.0869 49.4986 35.5822 47.8856 35.2028 39.0239 33.1167 30.3314 35.4256 23.3444 41.1475 21.5851 42.5881 19.7591 44.8206 17.1868 44.5702 16.2453 44.4792 14.0112 43.8223 13.6096 42.8125 12.1121 39.05 14.7088 34.0744 17.2128 31.3167 19.6811 28.5997 22.216 26.9314 25.2469 25.3704 25.2999 25.3439 25.3213 25.2794 25.2947 25.2264 25.2935 25.2239 25.2922 25.2215 25.2908 25.2192L24.5347 23.9461C24.4596 23.821 24.4596 23.6646 24.5347 23.5396L25.7802 21.4469C25.8612 21.3123 26.0355 21.2682 26.1696 21.3487 26.1929 21.3625 26.2138 21.3798 26.2322 21.3998 26.507 21.6957 26.4826 22.2062 26.4664 22.5835 26.4534 22.8566 26.5672 23.042 26.6615 23.2827 26.6777 23.3249 26.7038 23.3319 26.7395 23.3038 26.8338 23.2323 26.6794 22.8127 26.9867 22.5526 27.0322 22.5136 27.0545 22.4643 27.0533 22.4046 27.0415 21.8367 27.172 21.3043 27.4452 20.8079 27.4657 20.7721 27.5015 20.7485 27.5411 20.7445L28.0208 20.6957C28.0728 20.6903 28.1119 20.7103 28.1379 20.7559 28.4696 21.3445 28.6919 21.9689 28.8045 22.629 28.8328 22.7918 28.9878 22.9007 29.1507 22.8724 29.194 22.8648 29.2351 22.8479 29.2712 22.8225 29.4988 22.661 29.7569 22.5916 30.0452 22.6144 30.1211 22.6209 30.1432 22.6588 30.1118 22.7282 30.0436 22.8757 29.9406 23.0253 29.8029 23.177 29.7801 23.203 29.7797 23.2295 29.8013 23.2566 29.8359 23.2978 29.868 23.2957 29.8972 23.2501L30.2826 22.6501C30.3118 22.6058 30.3481 22.5688 30.3915 22.5396 34.6809 19.7022 40.7556 17.5868 45.8824 18.6713 47.4076 18.9949 48.7539 19.5819 50.0937 20.3607 50.1183 20.3755 50.1503 20.3676 50.1651 20.343 50.1716 20.3321 50.1739 20.3194 50.1718 20.3071 49.9788 19.17 49.6926 18.053 49.3133 16.9559 49.1799 16.5673 48.936 16.0779 48.7929 15.6063 48.6672 15.1901 48.5355 14.8567 48.3978 14.6063 47.6515 13.2437 46.9474 11.8486 45.9035 10.6779 44.8868 9.54082 43.8088 8.46548 42.6694 7.45195 41.8125 6.68935 40.6304 6.12838 39.6207 5.29913 39.5802 5.26509 39.5313 5.24311 39.4792 5.23571 39.128 5.18584 38.8261 5.04872 38.5735 4.82433 38.1849 4.48125 37.8532 4.36743 37.463 4.08776 37.4142 4.05308 37.3671 4.0547 37.3215 4.09264 36.6288 4.67149 35.8337 3.60321 36.9817 3.27964" stroke="#000000" stroke-width="0.325221" stroke-linecap="butt" stroke-linejoin="miter" stroke-miterlimit="4" stroke-opacity="1" fill="none" fill-rule="nonzero" transform="matrix(1 0 0 1.00079 256.78 156.723)"/><path d="M36.9817 3.27964C37.1779 3.34142 37.3362 3.50186 37.4565 3.76093 37.4739 3.79996 37.5134 3.81731 37.5752 3.81296 37.6305 3.80971 37.6446 3.7837 37.6175 3.73492 37.457 3.43573 37.2365 3.26338 36.9557 3.21785" stroke="#000000" stroke-width="0.325221" stroke-linecap="butt" stroke-linejoin="miter" stroke-miterlimit="4" stroke-opacity="1" fill="none" fill-rule="nonzero" transform="matrix(1 0 0 1.00079 256.78 156.723)"/><path d="M36.9557 3.21785C32.7492 2.35119 28.8143 2.4016 24.6127 3.19671 23.577 3.39346 22.5184 3.88939 21.3851 4.08288 20.8648 4.17231 20.6193 4.4341 20.3038 4.80807 20.2698 4.84947 20.2248 4.88046 20.1738 4.8975 19.4713 5.13653 19.0795 5.52839 18.5136 5.96253 17.3624 6.84708 16.0632 7.86332 15.234 9.05355 15.1924 9.11325 15.2065 9.19498 15.2654 9.2361 15.2694 9.2389 15.2736 9.24147 15.2779 9.2438 16.6014 9.96358 17.9522 10.6096 19.3299 11.182 19.6225 11.3023 19.8518 11.4877 20.0908 11.6795 20.1342 11.7142 20.1407 11.7543 20.1103 11.7999 19.1169 13.2844 18.19 14.8649 16.9608 16.1673 16.9463 16.1821 16.9471 16.206 16.9627 16.2207 16.9681 16.2257 16.9748 16.2291 16.9819 16.2307 17.8274 16.377 18.6604 16.5759 19.4811 16.8274 20.3364 17.0892 20.8518 17.1917 21.1412 17.9835 21.1607 18.0388 21.1993 18.0746 21.2567 18.0908 21.545 18.1754 21.8984 18.2209 22.3168 18.2274 22.8306 18.2351 23.8025 18.3429 25.2322 18.551 25.6127 18.6063 26.3872 18.6399 27.5558 18.6518 28.2517 18.6599 29.4468 18.8356 30.4257 18.6486 30.4559 18.6442 30.4839 18.6652 30.4883 18.6954 30.4914 18.7177 30.4808 18.7396 30.4614 18.751 29.5249 19.2339 28.9005 19.8746 27.8046 19.9185 26.3574 19.9759 24.9108 20.0139 23.4648 20.0323 22.0502 20.0502 19.6843 19.3396 19.1982 21.2924 19.184 21.3489 19.1494 21.3684 19.0941 21.351 18.2632 21.0924 17.8567 20.7429 16.7819 20.7185 16.7299 20.7173 16.7255 20.7033 16.7689 20.6762 16.7905 20.662 16.8112 20.6546 16.8307 20.6534 17.1645 20.6307 17.505 20.6128 17.8518 20.5998 17.9032 20.5978 17.9495 20.5687 17.9738 20.5233 18.2209 20.0551 18.6079 19.751 18.8421 19.3169 19.0286 18.971 19.2225 18.6295 19.4242 18.2925 19.4437 18.2603 19.4333 18.2182 19.4011 18.1987 19.396 18.1957 19.3907 18.1933 19.3851 18.1917 17.823 17.7538 16.2491 17.3408 14.6632 16.9527 14.5153 16.9153 14.3722 16.8096 14.26 16.7153 14.2448 16.704 14.2422 16.6822 14.2543 16.6668 14.2583 16.6616 14.2637 16.6575 14.2698 16.6551 14.8307 16.4388 15.099 16.3462 15.3982 15.7868 15.9673 14.7223 16.6335 13.7294 17.3965 12.808 17.44 12.7553 17.4325 12.6774 17.3798 12.634 17.372 12.6276 17.3634 12.6221 17.3543 12.6177L13.4909 10.7478C13.4193 10.713 13.3739 10.6404 13.3738 10.5609L13.3738 8.61941C13.3738 8.55763 13.3478 8.54353 13.2958 8.57714 12.9457 8.80261 12.654 9.01453 12.421 9.2129 7.15927 13.6844 3.97069 19.2897 2.85525 26.029 1.96908 31.3818 2.99834 37.5296 5.98205 41.9068 8.15004 45.0873 11.0026 47.7089 14.5397 49.7718 15.4844 50.323 16.3218 50.9571 17.2242 51.549 17.2679 51.5783 17.2983 51.6231 17.3087 51.6742 17.4562 52.3571 17.571 53.0461 17.6535 53.7408 17.6811 53.975 17.8648 54.1701 17.8941 54.3392 18.2681 56.5733 18.8307 58.757 18.7949 61.1066 18.777 62.2497 18.06 63.2594 18.6616 64.3879 19.5022 65.9667 20.7851 67.5391 21.938 68.8756 22.7705 69.8415 23.4729 70.7862 24.2973 71.6951 24.7184 72.1601 25.1363 72.2382 25.72 72.1244 25.7808 72.1123 25.8236 72.0577 25.8208 71.9959 25.7786 71.1167 25.823 70.2426 25.9542 69.3732 25.9573 69.3542 25.9538 69.3346 25.9444 69.3179L24.0225 65.8838C23.997 65.8384 24.0124 65.7812 24.057 65.7562 24.0584 65.7553 24.06 65.7545 24.0615 65.7537L24.3542 65.6058C24.4062 65.5797 24.4441 65.5396 24.468 65.4854 25.0241 64.1797 25.655 63.3472 26.2517 62.2855 26.507 61.8302 26.4387 61.344 26.5834 60.8286 26.6534 60.583 26.8371 60.4676 26.9981 60.2839" stroke="#000000" stroke-width="0.325221" stroke-linecap="butt" stroke-linejoin="miter" stroke-miterlimit="4" stroke-opacity="1" fill="none" fill-rule="nonzero" transform="matrix(1 0 0 1.00079 256.78 156.723)"/><path d="M36.9557 3.21785C36.9394 3.28398 36.948 3.30456 36.9817 3.27964" stroke="#000000" stroke-width="0.325221" stroke-linecap="butt" stroke-linejoin="miter" stroke-miterlimit="4" stroke-opacity="1" fill="none" fill-rule="nonzero" transform="matrix(1 0 0 1.00079 256.78 156.723)"/><path d="M26.9851 60.7733C27.2473 60.7505 27.3981 60.8128 27.4371 60.9603 27.5054 61.2107 27.0013 61.8334 27.5737 61.9342 27.6343 61.9451 27.6675 61.9201 27.6729 61.8595 27.726 61.2655 27.6089 60.7115 27.3216 60.1977 27.2909 60.1426 27.2236 60.1195 27.1655 60.144 27.0821 60.1787 27.0262 60.2253 26.9981 60.2839" stroke="#000000" stroke-width="0.325221" stroke-linecap="butt" stroke-linejoin="miter" stroke-miterlimit="4" stroke-opacity="1" fill="none" fill-rule="nonzero" transform="matrix(1 0 0 1.00079 256.78 156.723)"/><path d="M27.0696 60.6822C27.1542 60.705 27.2203 60.6925 27.268 60.6448 27.3114 60.6014 27.3228 60.5456 27.3021 60.4774 27.2729 60.3787 27.1997 60.3289 27.0826 60.3278" stroke="#000000" stroke-width="0.325221" stroke-linecap="butt" stroke-linejoin="miter" stroke-miterlimit="4" stroke-opacity="1" fill="none" fill-rule="nonzero" transform="matrix(1 0 0 1.00079 256.78 156.723)"/><path d="M53.3035 38.2126 52.8092 37.9735C52.6724 37.9079 52.5082 37.9654 52.4425 38.1022 52.4145 38.1604 52.4079 38.2264 52.4238 38.289 52.6709 39.2402 52.8498 41.1475 52.5246 42.0743 52.483 42.1925 52.5282 42.3234 52.6335 42.3898L53.6904 43.0613C53.7483 43.0976 53.7657 43.1738 53.7295 43.2317 53.7225 43.2429 53.7137 43.2528 53.7034 43.2613L52.7652 44.0174" stroke="#000000" stroke-width="0.325221" stroke-linecap="butt" stroke-linejoin="miter" stroke-miterlimit="4" stroke-opacity="1" fill="none" fill-rule="nonzero" transform="matrix(1 0 0 1.00079 256.78 156.723)"/><path d="M52.7652 44.0174 52.3246 44.1149C52.2714 44.1268 52.2656 44.1507 52.3067 44.1865 53.5566 45.2998 54.7803 46.4429 55.9782 47.6157 57.3441 48.9539 59.0335 49.7149 60.8969 50.0937 62.0058 50.3181 62.9229 50.9962 63.9098 51.6579 65.0817 52.4438 66.0469 53.1392 66.8057 53.7441 66.9228 53.8368 67.1472 53.9587 67.2594 53.9994 67.4514 54.0678 67.6625 53.9677 67.7309 53.7756 67.7347 53.7652 67.7379 53.7548 67.7407 53.7441 68.0106 52.6986 68.2447 51.549 68.583 50.6563 69.8626 47.2694 72.5195 45.1426 75.9292 44.0971 76.0897 44.0483 76.2544 44.025 76.4235 44.0271 76.4951 44.0271 76.5076 44.0548 76.4609 44.1101L76.3325 44.2597" stroke="#000000" stroke-width="0.325221" stroke-linecap="butt" stroke-linejoin="miter" stroke-miterlimit="4" stroke-opacity="1" fill="none" fill-rule="nonzero" transform="matrix(1 0 0 1.00079 256.78 156.723)"/><path d="M76.3325 44.2597C76.1752 44.2023 76.0647 44.2358 76.0008 44.3605 75.9736 44.4146 75.9873 44.4553 76.0414 44.4824 76.1173 44.5226 76.2142 44.5307 76.3325 44.5068" stroke="#000000" stroke-width="0.325221" stroke-linecap="butt" stroke-linejoin="miter" stroke-miterlimit="4" stroke-opacity="1" fill="none" fill-rule="nonzero" transform="matrix(1 0 0 1.00079 256.78 156.723)"/><path d="M76.3325 44.5068C76.3833 44.587 76.4528 44.6292 76.5406 44.6336 76.597 44.6357 76.6251 44.6088 76.6251 44.5523L76.6251 44.3979C76.6251 44.3523 76.6409 44.3133 76.6723 44.2808 76.9731 43.967 77.3032 43.7507 77.5763 43.4044 78.1682 42.6548 79.0999 41.8125 80.1064 42.1312 80.1736 42.1529 80.1823 42.1886 80.1324 42.2385L78.7975 43.554C78.7508 43.6006 78.7596 43.6309 78.8235 43.645 79.5271 43.8076 80.2386 43.9138 80.9584 43.9637 81.4869 44.0011 81.9486 44.1507 82.443 44.2889 82.4961 44.3031 82.5433 44.2927 82.5844 44.258 83.2706 43.671 84.2299 43.058 84.7015 42.3426 85.4787 41.1638 85.5356 39.3117 85.3828 37.8727 85.3763 37.8056 85.3172 37.7162 85.2055 37.6044 85.1372 37.5362 85.0478 37.4841 84.9372 37.4483 83.96 37.1345 82.9064 36.6793 82.2738 35.8402 82.0104 35.4907 81.6072 35.3118 81.2804 35.0126 81.2402 34.9757 81.2197 34.9302 81.2186 34.876 81.2153 34.5931 81.2104 34.3313 81.2625 34.0419 81.8218 30.9671 81.3096 28.0485 80.4609 24.9883 80.3482 24.5807 80.1405 24.0522 79.8381 23.403 79.8142 23.3531 79.7784 23.3417 79.7308 23.3688 78.0202 24.3498 76.4263 25.4913 74.9487 26.7932 74.5146 27.1753 73.9032 27.533 73.4463 27.9948 72.7423 28.7102 72.2788 29.0989 71.6512 29.6436 71.6045 29.6847 71.5499 29.7054 71.487 29.7054L68.4025 29.72C68.3623 29.72 68.3252 29.7418 68.3049 29.7769 68.1282 30.0847 67.9244 30.1156 67.6935 29.8696 66.435 28.5281 62.2139 23.9379 61.0513 23.9412 60.9964 23.9412 60.9439 23.9641 60.9066 24.0046 60.6421 24.2875 60.3809 24.687 60.1229 25.203 59.4486 26.5514 58.9359 27.6945 58.5847 28.6322 58.4205 29.0712 58.3359 29.5997 58.1896 30.0793 57.6351 31.9004 57.6319 33.9053 57.7083 35.9736 57.7136 36.1243 57.6177 36.1887 57.4205 36.1671 57.3671 36.1609 57.3137 36.1801 57.2758 36.2191 57.0644 36.4349 56.7989 36.5367 56.479 36.5248 56.4333 36.523 56.3948 36.5588 56.393 36.6045 56.3927 36.615 56.3941 36.6254 56.3977 36.6353L56.466 36.8337C56.4867 36.8955 56.4693 36.9432 56.414 36.9768 56.1181 37.1633 55.7961 37.2874 55.4481 37.3492 55.3989 37.3576 55.3542 37.3843 55.3229 37.424 54.9218 37.9204 54.4156 38.0505 53.8043 37.8142 53.7534 37.7935 53.7039 37.7975 53.6563 37.8256 53.5153 37.908 53.3978 38.037 53.3035 38.2126" stroke="#000000" stroke-width="0.325221" stroke-linecap="butt" stroke-linejoin="miter" stroke-miterlimit="4" stroke-opacity="1" fill="none" fill-rule="nonzero" transform="matrix(1 0 0 1.00079 256.78 156.723)"/><path d="M76.3325 44.5068 76.3325 44.2597" stroke="#000000" stroke-width="0.325221" stroke-linecap="butt" stroke-linejoin="miter" stroke-miterlimit="4" stroke-opacity="1" fill="none" fill-rule="nonzero" transform="matrix(1 0 0 1.00079 256.78 156.723)"/><path d="M52.7652 44.0174C52.9945 44.1784 53.2742 43.9865 53.4595 43.7962 53.8152 43.4309 54.2091 43.1415 54.6416 42.928 54.736 42.8797 54.7732 42.7641 54.7249 42.6698 54.6917 42.605 54.6249 42.5647 54.5522 42.5654 54.4948 42.5665 54.4254 42.6039 54.3441 42.6776 54.2932 42.7231 54.2412 42.7247 54.188 42.6824 54.0373 42.561 53.8617 42.5226 53.6612 42.567 53.6038 42.5805 53.543 42.566 53.4969 42.528 52.8059 41.954 53.253 41.554 53.2189 40.8776 53.1734 39.9779 53.2015 39.0895 53.3035 38.2126" stroke="#000000" stroke-width="0.325221" stroke-linecap="butt" stroke-linejoin="miter" stroke-miterlimit="4" stroke-opacity="1" fill="none" fill-rule="nonzero" transform="matrix(1 0 0 1.00079 256.78 156.723)"/><path d="M70.6886 56.3327 69.726 56.4709C69.694 56.475 69.6712 56.5044 69.6755 56.5364 69.6769 56.5483 69.6821 56.5595 69.6903 56.5685 70.0589 56.9901 70.4914 57.3371 70.9878 57.6091" stroke="#000000" stroke-width="0.325221" stroke-linecap="butt" stroke-linejoin="miter" stroke-miterlimit="4" stroke-opacity="1" fill="none" fill-rule="nonzero" transform="matrix(1 0 0 1.00079 256.78 156.723)"/><path d="M70.9878 57.6091C72.8301 62.5846 78.1097 64.4009 82.8755 62.4009 82.9828 62.3554 83.1182 62.2307 83.282 62.0269 83.3166 61.9847 83.3068 61.9598 83.2527 61.9521 82.4506 61.8448 81.688 61.6334 80.9649 61.318" stroke="#000000" stroke-width="0.325221" stroke-linecap="butt" stroke-linejoin="miter" stroke-miterlimit="4" stroke-opacity="1" fill="none" fill-rule="nonzero" transform="matrix(1 0 0 1.00079 256.78 156.723)"/><path d="M80.9649 61.318C80.9238 61.2151 80.9313 61.138 80.9877 61.0871" stroke="#000000" stroke-width="0.325221" stroke-linecap="butt" stroke-linejoin="miter" stroke-miterlimit="4" stroke-opacity="1" fill="none" fill-rule="nonzero" transform="matrix(1 0 0 1.00079 256.78 156.723)"/><path d="M80.9877 61.0871C81.7877 61.4253 82.9194 61.8318 83.7958 61.7147 83.8522 61.7082 83.9015 61.6871 83.9438 61.6513 85.586 60.2855 87.0478 58.1327 87.3372 55.9327 87.8348 52.1376 85.6006 48.1588 81.9926 46.7653 78.6528 45.4759 74.8349 46.5426 72.5878 49.2905 70.9184 51.3327 70.2854 53.6802 70.6886 56.3327" stroke="#000000" stroke-width="0.325221" stroke-linecap="butt" stroke-linejoin="miter" stroke-miterlimit="4" stroke-opacity="1" fill="none" fill-rule="nonzero" transform="matrix(1 0 0 1.00079 256.78 156.723)"/><path d="M80.9877 61.0871C79.7584 60.6042 78.7243 59.4253 78.0105 58.3619 76.8072 56.5685 76.4707 54.4547 76.6414 52.31" stroke="#000000" stroke-width="0.325221" stroke-linecap="butt" stroke-linejoin="miter" stroke-miterlimit="4" stroke-opacity="1" fill="none" fill-rule="nonzero" transform="matrix(1 0 0 1.00079 256.78 156.723)"/><path d="M76.6414 52.31C77.0528 50.2677 78.6462 49.2645 80.6186 49.0385 80.6305 49.0373 80.6376 49.0266 80.6397 49.0059 80.6418 48.982 80.6311 48.9702 80.6072 48.9702 79.5849 48.9876 78.584 49.1393 77.604 49.4254 77.5411 49.4438 77.5015 49.4845 77.4853 49.5474 77.3975 49.8889 77.2268 50.182 76.9731 50.4271 76.9308 50.4672 76.8809 50.4872 76.8235 50.4872L76.7308 50.4872C76.6625 50.4872 76.6191 50.5197 76.6007 50.5848L76.2219 51.9506" stroke="#000000" stroke-width="0.325221" stroke-linecap="butt" stroke-linejoin="miter" stroke-miterlimit="4" stroke-opacity="1" fill="none" fill-rule="nonzero" transform="matrix(1 0 0 1.00079 256.78 156.723)"/><path d="M76.2219 51.9506C75.7975 55.5929 77.2381 59.9603 80.9649 61.318" stroke="#000000" stroke-width="0.325221" stroke-linecap="butt" stroke-linejoin="miter" stroke-miterlimit="4" stroke-opacity="1" fill="none" fill-rule="nonzero" transform="matrix(1 0 0 1.00079 256.78 156.723)"/><path d="M70.9878 57.6091 70.6886 56.3327" stroke="#000000" stroke-width="0.325221" stroke-linecap="butt" stroke-linejoin="miter" stroke-miterlimit="4" stroke-opacity="1" fill="none" fill-rule="nonzero" transform="matrix(1 0 0 1.00079 256.78 156.723)"/><path d="M76.6414 52.31C76.649 52.1355 76.6198 51.9836 76.5536 51.8547 76.5243 51.7983 76.4832 51.7869 76.43 51.8205L76.2219 51.9506" stroke="#000000" stroke-width="0.325221" stroke-linecap="butt" stroke-linejoin="miter" stroke-miterlimit="4" stroke-opacity="1" fill="none" fill-rule="nonzero" transform="matrix(1 0 0 1.00079 256.78 156.723)"/><path d="M73.7309 67.4935C73.6539 67.048 73.4653 66.6378 73.165 66.2626" stroke="#000000" stroke-width="0.325221" stroke-linecap="butt" stroke-linejoin="miter" stroke-miterlimit="4" stroke-opacity="1" fill="none" fill-rule="nonzero" transform="matrix(1 0 0 1.00079 256.78 156.723)"/><path d="M73.165 66.2626C72.959 65.9862 72.7645 65.7049 72.5813 65.4188 72.3748 65.0919 72.0138 64.7993 71.8691 64.3391 71.8528 64.2871 71.8122 64.2464 71.7601 64.2302 71.352 64.1001 71.248 63.5277 71.0626 63.1684 71.0377 63.1196 70.998 63.0892 70.9439 63.0773 70.7174 63.0297 70.6203 62.8811 70.6528 62.6318" stroke="#000000" stroke-width="0.325221" stroke-linecap="butt" stroke-linejoin="miter" stroke-miterlimit="4" stroke-opacity="1" fill="none" fill-rule="nonzero" transform="matrix(1 0 0 1.00079 256.78 156.723)"/><path d="M70.6528 62.6318C70.4296 61.7874 69.9395 61.138 69.1829 60.6839" stroke="#000000" stroke-width="0.325221" stroke-linecap="butt" stroke-linejoin="miter" stroke-miterlimit="4" stroke-opacity="1" fill="none" fill-rule="nonzero" transform="matrix(1 0 0 1.00079 256.78 156.723)"/><path d="M69.1829 60.6839C68.242 59.0188 67.6431 57.2346 67.3862 55.3311 67.3797 55.2812 67.3509 55.2551 67.3 55.253 66.4111 55.2281 65.5217 55.1929 64.6318 55.1473 64.1082 55.1197 63.8172 55.4481 63.4757 55.601 62.9728 55.8265 62.4606 56.06 61.9391 56.3018 61.6799 56.4224 61.5297 56.6985 61.5684 56.9831 61.7034 57.9587 62.3733 59.6042 63.0253 60.4839 63.6811 61.3717 64.3965 62.1001 65.1716 62.6692 67.3428 64.2615 69.8273 65.7949 72.6252 67.2691 73.0463 67.4903 73.487 67.6008 73.9406 67.7293 73.9666 67.7369 73.9878 67.7337 74.004 67.7196 74.0377 67.6914 74.0333 67.6696 73.991 67.6545 73.8317 67.596 73.745 67.5423 73.7309 67.4935" stroke="#000000" stroke-width="0.325221" stroke-linecap="butt" stroke-linejoin="miter" stroke-miterlimit="4" stroke-opacity="1" fill="none" fill-rule="nonzero" transform="matrix(1 0 0 1.00079 256.78 156.723)"/><path d="M69.1829 60.6839C69.5585 61.2806 70.0496 62.1781 70.6528 62.6318" stroke="#000000" stroke-width="0.325221" stroke-linecap="butt" stroke-linejoin="miter" stroke-miterlimit="4" stroke-opacity="1" fill="none" fill-rule="nonzero" transform="matrix(1 0 0 1.00079 256.78 156.723)"/><path d="M73.165 66.2626C72.8496 66.2171 72.8268 65.9228 72.591 65.8692 72.4967 65.8475 72.4154 65.8773 72.3471 65.9586 72.3065 66.0085 72.3092 66.0805 72.3536 66.1261 72.7244 66.5017 73.2479 67.3261 73.7309 67.4935" stroke="#000000" stroke-width="0.325221" stroke-linecap="butt" stroke-linejoin="miter" stroke-miterlimit="4" stroke-opacity="1" fill="none" fill-rule="nonzero" transform="matrix(1 0 0 1.00079 256.78 156.723)"/><path d="M31.4549 66.2041 31.5557 65.6106C31.5596 65.5887 31.5452 65.5675 31.5232 65.5635L31.4988 65.5602C31.3183 65.5297 31.1473 65.6505 31.1167 65.8301L31.1135 65.8529C31.0832 66.0324 31.2047 66.2027 31.385 66.2334L31.4094 66.2366C31.4309 66.2396 31.4509 66.2253 31.4549 66.2041" stroke="#000000" stroke-width="0.325221" stroke-linecap="butt" stroke-linejoin="miter" stroke-miterlimit="4" stroke-opacity="1" fill="none" fill-rule="nonzero" transform="matrix(1 0 0 1.00079 256.78 156.723)"/><path d="M77.5568 30.4403 78.1698 29.7054C78.2012 29.6675 78.2045 29.6268 78.1796 29.5834 78.171 29.5683 78.1693 29.5471 78.1747 29.52 78.1807 29.4919 78.1627 29.4642 78.1347 29.4582 78.1157 29.4543 78.096 29.4611 78.0837 29.4761L77.0755 30.6062C77.0105 30.6769 76.9004 30.6816 76.8297 30.6166 76.7855 30.5761 76.7653 30.5156 76.7764 30.4566L77.017 29.2354C77.0268 29.1878 77.0479 29.1465 77.0804 29.1119 77.3016 28.8756 77.5775 28.7439 77.9081 28.7167 77.9742 28.7114 78.0072 28.675 78.0072 28.6078L78.0072 28.5037C78.0072 28.4431 77.9768 28.4164 77.9162 28.4241 77.3937 28.4837 76.9975 28.7325 76.7276 29.1704 76.6874 29.2366 76.65 29.2772 76.6154 29.2923 76.5492 29.3228 76.4881 29.2989 76.4316 29.2208 76.3938 29.1683 76.3206 29.1566 76.2682 29.1943 76.2442 29.2117 76.2277 29.2374 76.2219 29.2663 76.2024 29.3595 76.2235 29.431 76.2853 29.481 76.3297 29.5167 76.3401 29.5601 76.3162 29.611 76.0658 30.1455 76.2321 30.5367 76.8154 30.785 76.9629 30.8489 77.0077 30.9753 76.9503 31.1639 76.9352 31.2153 76.9487 31.271 76.9861 31.3102 77.1238 31.4512 77.1329 31.5952 77.0137 31.7427 76.9757 31.7892 76.9832 31.8583 77.0305 31.897 77.0318 31.8982 77.0334 31.8993 77.0349 31.9004L77.1568 31.9882C77.2024 32.0219 77.2664 32.0123 77.3001 31.9668 77.3045 31.9608 77.3082 31.9544 77.3113 31.9476 77.5986 31.32 77.9541 30.7314 78.378 30.1818 78.4051 30.1471 78.4398 30.1281 78.482 30.1249 78.6186 30.113 78.7036 30.044 78.7373 29.9184 78.7495 29.8733 78.723 29.8268 78.678 29.8146 78.675 29.8138 78.6719 29.8132 78.669 29.8127 78.2105 29.7395 77.9763 30.2224 77.6365 30.5183 77.6149 30.5403 77.5796 30.5408 77.5576 30.5192 77.5357 30.4975 77.5352 30.4623 77.5568 30.4403" stroke="#000000" stroke-width="0.325221" stroke-linecap="butt" stroke-linejoin="miter" stroke-miterlimit="4" stroke-opacity="1" fill="none" fill-rule="nonzero" transform="matrix(1 0 0 1.00079 256.78 156.723)"/><path d="M62.7798 30.2549C62.9424 30.6777 63.0464 31.5574 62.5473 31.811 61.9087 32.1351 61.2704 32.4577 60.6318 32.7785 60.505 32.8424 60.4318 32.9378 60.4123 33.0647 60.4073 33.1021 60.4328 33.1365 60.4692 33.1419 60.4808 33.1437 60.4925 33.1422 60.5034 33.1378 61.0551 32.9146 61.6095 32.6956 62.1668 32.4809 62.4936 32.3541 62.8107 32.4354 63.1603 32.398 63.2176 32.3926 63.2464 32.4187 63.2464 32.476 63.2464 32.6321 63.3201 32.7416 63.4676 32.8045 63.5217 32.8273 63.5521 32.8094 63.5586 32.7508 63.6562 31.9021 63.7212 31.2777 63.4318 30.4566 63.2806 30.0306 63.2903 29.5574 62.9212 29.1167 62.8816 29.0693 62.8107 29.0629 62.7632 29.1026 62.7627 29.1029 62.7624 29.1034 62.7619 29.1037 62.6177 29.2294 62.4529 29.2549 62.2676 29.1802 62.2209 29.1628 62.1749 29.1628 62.1294 29.1802 61.6172 29.3736 61.1359 30.2045 61.2741 30.7362 61.2915 30.8034 61.3256 30.8131 61.3765 30.7655 61.7289 30.4338 62.1505 30.2359 62.6416 30.172 62.7007 30.1644 62.7578 30.1987 62.7798 30.2549" stroke="#000000" stroke-width="0.325221" stroke-linecap="butt" stroke-linejoin="miter" stroke-miterlimit="4" stroke-opacity="1" fill="none" fill-rule="nonzero" transform="matrix(1 0 0 1.00079 256.78 156.723)"/><path d="M65.1293 45.4499C65.0924 45.4413 65.1158 45.4206 65.1992 45.3881" stroke="#000000" stroke-width="0.325221" stroke-linecap="butt" stroke-linejoin="miter" stroke-miterlimit="4" stroke-opacity="1" fill="none" fill-rule="nonzero" transform="matrix(1 0 0 1.00079 256.78 156.723)"/><path d="M65.1992 45.3881C65.802 45.684 66.1005 46.1491 66.0952 46.7832 66.094 46.8346 66.0662 46.8816 66.022 46.9068L65.5684 47.1637C65.5384 47.1816 65.528 47.2203 65.5449 47.25 65.556 47.2695 65.5768 47.2814 65.5992 47.2808 66.6789 47.2661 67.4984 46.4694 66.5098 45.5214 65.6984 44.7442 64.944 44.5166 63.8968 44.3605 63.3342 44.2759 62.7684 43.7865 62.4155 44.6531 62.3868 44.7249 62.4214 44.8063 62.4931 44.8351 62.4933 44.8351 62.4934 44.8353 62.4936 44.8353 62.9315 45.0076 63.351 45.2185 63.7521 45.4678 64.1342 45.7068 64.3635 45.658 64.7944 45.6418 64.9841 45.6353 65.0957 45.5713 65.1293 45.4499" stroke="#000000" stroke-width="0.325221" stroke-linecap="butt" stroke-linejoin="miter" stroke-miterlimit="4" stroke-opacity="1" fill="none" fill-rule="nonzero" transform="matrix(1 0 0 1.00079 256.78 156.723)"/><path d="M65.1992 45.3881C65.1419 45.3209 65.0757 45.2754 65.0009 45.2515 64.9012 45.219 64.8843 45.2445 64.9505 45.3279 64.9841 45.3691 65.0436 45.4097 65.1293 45.4499" stroke="#000000" stroke-width="0.325221" stroke-linecap="butt" stroke-linejoin="miter" stroke-miterlimit="4" stroke-opacity="1" fill="none" fill-rule="nonzero" transform="matrix(1 0 0 1.00079 256.78 156.723)"/><path d="M61.5375 29.9655C61.4378 30.1476 61.4882 30.211 61.6887 30.1558 62.157 30.0289 62.7212 30.0013 62.8936 29.4387 62.9136 29.3743 62.877 29.3062 62.8116 29.2865 62.7793 29.2769 62.7443 29.2806 62.7147 29.2972L62.5456 29.3948C62.5131 29.4132 62.4785 29.4224 62.4416 29.4224 62.0362 29.4245 61.7347 29.6057 61.5375 29.9655" stroke="#000000" stroke-width="0.325221" stroke-linecap="butt" stroke-linejoin="miter" stroke-miterlimit="4" stroke-opacity="1" fill="none" fill-rule="nonzero" transform="matrix(1 0 0 1.00079 256.78 156.723)"/><path d="M82.7324 47.7539C82.6457 47.6477 82.5356 47.5837 82.4023 47.5621 82.3449 47.5523 82.3036 47.5734 82.2787 47.6255 82.2116 47.7621 82.1329 47.839 82.043 47.8564 81.2613 48.0081 80.1644 48.1323 78.7519 48.2287 78.7097 48.2308 78.6767 48.2429 78.6528 48.2645 78.6256 48.2894 78.6045 48.316 78.5893 48.3442 78.5557 48.4071 78.5747 48.4368 78.6462 48.4336 80.0435 48.3762 81.4283 48.2064 82.8007 47.9247 82.8462 47.916 82.8613 47.8894 82.8462 47.845 82.8267 47.7908 82.7888 47.7604 82.7324 47.7539" stroke="#000000" stroke-width="0.325221" stroke-linecap="butt" stroke-linejoin="miter" stroke-miterlimit="4" stroke-opacity="1" fill="none" fill-rule="nonzero" transform="matrix(1 0 0 1.00079 256.78 156.723)"/><path d="M89.3128 61.4952C88.9312 61.7944 88.5149 61.8209 88.064 61.5749 88.0152 61.5477 87.9653 61.5468 87.9144 61.5717 87.6554 61.6985 87.3816 61.7408 87.0933 61.6985 87.0424 61.6908 86.9953 61.6725 86.9519 61.6432 86.5275 61.3603 85.2657 62.0708 84.9275 62.2952 84.8711 62.3331 84.8668 62.3765 84.9145 62.4253 85.1128 62.6313 85.4141 62.8768 85.8185 63.1619 86.1795 63.4167 86.4522 63.7412 86.6364 64.1358 84.1768 65.0963 81.593 65.5575 78.8853 65.5196 78.6825 65.5175 78.6154 65.6118 78.6836 65.8025 78.6934 65.8297 78.7036 65.8752 78.7145 65.9391 78.7243 65.9922 78.7471 66.0394 78.7828 66.0805 79.4219 66.8155 80.3113 68.4025 79.8446 69.3846 79.1064 70.9407 76.6381 70.9016 75.1991 70.6122 72.6301 70.0919 70.4561 68.8415 68.0431 67.3147 66.009 66.0269 63.5537 64.5424 62.0302 62.8269 60.8834 61.537 60.0156 60.059 59.427 58.3928 59.4086 58.3397 59.3728 58.305 59.3196 58.2888 58.3814 57.9961 57.3928 58.5798 56.5522 58.9115 55.6449 59.2709 55.4075 60.9017 55.5018 61.7489 55.8595 64.95 57.1169 67.7504 59.2741 70.1504 60.1034 71.0724 60.1944 72.378 59.1733 73.191 57.3473 74.6414 54.9734 73.3634 52.64 72.3845 52.5913 72.3639 52.5506 72.332 52.5181 72.2886 52.0087 71.6166 51.497 70.9483 50.9832 70.2837 48.1507 66.622 45.9284 62.6232 44.3166 58.2871 44.2964 58.2354 44.2605 58.192 44.2141 58.1636 43.9182 57.9814 43.5967 57.8632 43.2499 57.8091 41.6381 57.5554 40.0467 57.3111 38.476 57.0758 38.2929 57.0478 38.1142 57.1493 38.0435 57.3213 36.7768 60.4172 34.6874 62.7326 32.0826 64.8041 31.4956 65.2692 31.8354 66.4561 32.1622 66.97 32.3118 67.2074 32.5975 67.4664 33.0191 67.7472 33.9281 68.3521 35.0565 69.1228 35.6175 70.0789 36.2028 71.0756 36.741 71.8577 36.1931 73.017 35.4061 74.6804 33.6273 74.2804 32.2452 73.8235 30.3184 73.1861 29.3135 75.6804 27.3281 75.1325 26.0176 74.7699 24.7883 75.0723 23.6583 74.0642 22.7412 73.2458 21.8637 72.3211 21.0258 71.2902 19.1477 68.9764 17.4274 66.9781 16.312 64.5017 15.5559 62.8269 16.8876 61.6302 16.5966 59.9245 16.3375 58.4167 16.0443 56.918 15.7169 55.4286 15.5819 54.8173 15.4372 53.8303 15.1608 53.0433 15.1429 52.9918 15.1079 52.9475 15.0616 52.9181 10.2552 49.7799 6.20806 46.7816 3.55443 42.3833 0.0341459 36.5427-0.676415 28.7249 1.31543 22.2778 2.05038 19.9006 2.89428 17.6421 4.2032 15.5088 5.72405 13.0329 7.52349 10.7798 9.60152 8.74949 10.0145 8.34625 10.9332 7.59666 12.3576 6.50074 13.5261 5.60103 14.763 4.80754 16.0681 4.12028 21.8176 1.09267 27.9493-0.245526 34.4451 0.473165 36.1666 0.663948 37.8814 0.901344 39.5898 1.18535 39.8581 1.23088 40.3426 1.16421 40.6841 1.3008 40.7259 1.31711 40.7467 1.36425 40.7303 1.40608 40.7255 1.4181 40.7181 1.42883 40.7085 1.43738 40.38 1.73331 40.174 2.097 40.0906 2.52843 40.0748 2.6147 40.1101 2.70262 40.1817 2.75444 43.0011 4.76743 45.6385 6.54464 47.806 9.31859 50.5897 12.8828 52.3002 16.8405 52.7148 21.3721 52.8547 22.9027 52.9235 24.4652 52.9213 26.0599 52.9213 26.1322 52.8955 26.2021 52.8482 26.2566 52.7225 26.403 52.5908 26.4187 52.4531 26.3038 52.3999 26.2582 52.3522 26.1872 52.31 26.0908 51.962 25.294 51.5062 24.5742 50.9425 23.9314 49.5897 22.3884 46.7848 21.003 44.8076 20.7103 40.7231 20.1055 36.3849 21.616 32.8712 23.6014 31.9687 24.1119 30.6045 24.8436 29.6159 25.6208 29.2241 25.9314 28.3476 26.7379 27.855 26.7834 26.9855 26.8647 26.2794 27.0566 25.7363 27.359 21.7819 29.5688 18.8356 32.1476 16.6177 36.024 15.8616 37.3492 14.4893 42.0142 16.6242 42.3589 17.8583 42.5589 18.8778 42.1702 19.8339 41.2678 22.7884 38.476 26.2062 36.1882 29.946 34.598 31.9574 33.7427 33.8533 33.0273 36.0126 32.6273 39.9691 31.8944 43.8992 31.9162 47.8027 32.6923 50.136 33.1573 52.3409 34.0386 54.4189 35.1557 54.5122 35.2059 54.6285 35.1711 54.6789 35.0778 54.6795 35.0767 54.68 35.0755 54.6807 35.0744 54.686 35.0658 54.6916 35.0224 54.6969 34.9443 55.0243 30.7318 56.2785 26.8208 58.4595 23.2111 58.8866 22.5033 59.3961 21.8627 59.9879 21.2892 60.2595 21.0258 60.5505 20.9884 60.905 21.1624 63.8854 22.6209 65.7001 24.9103 68.1683 26.9525 69.087 27.7135 70.4073 27.6224 71.3049 26.8729 72.2284 26.1033 73.4235 25.1277 74.8902 23.9461 76.6609 22.5201 78.4219 21.4632 80.3552 20.5591 80.5709 20.4583 80.7514 20.512 80.8966 20.7201 83.6413 24.6501 84.1893 29.5704 83.9665 34.1866 83.9556 34.4131 83.9963 34.6993 84.0885 35.0451 84.1026 35.095 84.1345 35.1253 84.1844 35.1362 84.7795 35.2598 87.625 35.1297 87.638 36.1215 87.6652 38.2853 87.6109 40.0251 87.4754 41.341 87.3128 42.9117 86.1974 43.9719 85.0283 44.9149 84.8995 45.0183 84.8795 45.2073 84.9836 45.3367 84.9938 45.3492 85.0049 45.3609 85.0169 45.3718 86.321 46.5409 87.6835 47.3198 88.6331 49.0043 90.1562 51.7035 90.5985 54.556 89.9599 57.5619 89.7664 58.4757 89.3746 59.4448 89.0331 60.3733 88.8749 60.8037 88.9681 61.1777 89.3128 61.4952ZM26.9981 60.2839 27.0826 60.3278C27.0229 60.4827 27.0187 60.6009 27.0696 60.6822 27.0371 60.6985 27.009 60.7289 26.9851 60.7733 26.8919 60.8047 26.8399 60.866 26.829 60.957 26.8225 61.0177 26.8457 61.0622 26.8989 61.0904L27.0355 61.1603C27.0802 61.1837 27.1101 61.2282 27.1151 61.279 27.152 61.6432 27.1764 62.0079 27.1883 62.3733 27.2062 62.97 26.8859 63.4155 26.5867 63.8952 26.2029 64.5131 25.546 66.1456 26.1607 66.7586 26.707 67.3033 27.2598 66.9504 27.6924 66.4318 28.2387 65.7748 28.7184 65.0578 29.3232 64.4789 31.3574 62.5277 33.4175 60.8773 34.9378 58.4481 35.1731 58.072 35.424 57.5343 35.6906 56.8351 36.069 55.8444 36.5529 54.7121 37.1427 53.4384 37.495 52.6786 37.7106 52.0666 37.7898 51.6027 38.2337 49.0238 36.4207 46.5214 34.7801 44.6353 33.9497 43.6803 33.1606 42.6976 32.4126 41.6873 32.397 41.6672 32.4013 41.6387 32.4221 41.6236 32.4396 41.6109 32.4642 41.6117 32.4809 41.6255 34.9801 43.7523 37.1703 45.8726 38.4841 48.9474 39.3752 51.0336 38.7752 52.9604 37.437 54.7018 37.3979 54.7527 37.4033 54.7977 37.4532 54.8368 37.6679 55.0059 37.9085 54.9799 38.1394 55.014 40.4299 55.3478 42.7258 55.6346 45.0271 55.8742 45.0803 55.8795 45.1052 55.8558 45.1019 55.8026 44.9198 52.4905 46.0157 49.4157 47.4515 46.4856 47.4621 46.4619 47.4899 46.451 47.5138 46.4616 47.536 46.4715 47.5471 46.4967 47.5393 46.5198 47.0434 48.4059 46.845 50.3702 46.3377 52.2482 46.2109 52.7186 46.1398 53.0909 46.1247 53.3652 46.0694 54.4417 46.0678 55.3994 46.3361 56.4839 46.9393 58.9262 47.6531 60.9131 49.0141 63.3017 49.9063 64.8703 51.2038 66.8274 52.9067 69.1732 53.6287 70.1683 55.1099 70.9195 56.2189 71.3032 56.2925 71.3293 56.3153 71.3054 56.2872 71.2317 55.692 69.726 55.1213 68.2724 54.4595 66.7326 54.1647 66.0453 53.981 65.5077 53.9083 65.1196 53.7408 64.2334 53.4319 63.3391 53.3213 62.5066 53.1262 61.0172 52.8791 58.2562 54.5327 57.3993 56.0059 56.6363 57.4899 56.1355 58.9847 55.8969 59.7273 55.7787 60.3598 55.6481 60.8822 55.5051 62.3001 55.1181 63.2285 55.266 64.196 53.9311 64.3033 53.7847 64.4399 53.7295 64.5684 53.627 64.6497 53.562 64.6518 53.4948 64.5749 53.4254 63.5939 52.5462 62.5429 51.8644 61.4221 51.3799 60.1261 50.8206 57.9814 50.471 56.4254 49.4092 54.3018 47.9604 52.5555 45.1588 49.8742 44.5914 49.8146 44.5795 49.7967 44.5453 49.8206 44.4889 50.0905 43.845 50.5441 43.2515 50.6807 42.5702 50.7962 41.9963 50.9929 41.3589 50.9913 40.8044 50.9892 40.0358 50.8531 39.2841 50.5832 38.5492 50.5625 38.4939 50.523 38.4651 50.4645 38.463 50.1685 38.4521 49.9198 38.3324 49.7181 38.1036 49.6791 38.0581 49.6763 38.0109 49.71 37.9622 50.1637 37.3036 51.2921 37.0093 52.0287 36.7996 52.1002 36.7789 52.1035 36.7513 52.0384 36.7167 50.8828 36.0869 49.4986 35.5822 47.8856 35.2028 39.0239 33.1167 30.3314 35.4256 23.3444 41.1475 21.5851 42.5881 19.7591 44.8206 17.1868 44.5702 16.2453 44.4792 14.0112 43.8223 13.6096 42.8125 12.1121 39.05 14.7088 34.0744 17.2128 31.3167 19.6811 28.5997 22.216 26.9314 25.2469 25.3704 25.2999 25.3439 25.3213 25.2794 25.2947 25.2264 25.2935 25.2239 25.2922 25.2215 25.2908 25.2192L24.5347 23.9461C24.4596 23.821 24.4596 23.6646 24.5347 23.5396L25.7802 21.4469C25.8612 21.3123 26.0355 21.2682 26.1696 21.3487 26.1929 21.3625 26.2138 21.3798 26.2322 21.3998 26.507 21.6957 26.4826 22.2062 26.4664 22.5835 26.4534 22.8566 26.5672 23.042 26.6615 23.2827 26.6777 23.3249 26.7038 23.3319 26.7395 23.3038 26.8338 23.2323 26.6794 22.8127 26.9867 22.5526 27.0322 22.5136 27.0545 22.4643 27.0533 22.4046 27.0415 21.8367 27.172 21.3043 27.4452 20.8079 27.4657 20.7721 27.5015 20.7485 27.5411 20.7445L28.0208 20.6957C28.0728 20.6903 28.1119 20.7103 28.1379 20.7559 28.4696 21.3445 28.6919 21.9689 28.8045 22.629 28.8328 22.7918 28.9878 22.9007 29.1507 22.8724 29.194 22.8648 29.2351 22.8479 29.2712 22.8225 29.4988 22.661 29.7569 22.5916 30.0452 22.6144 30.1211 22.6209 30.1432 22.6588 30.1118 22.7282 30.0436 22.8757 29.9406 23.0253 29.8029 23.177 29.7801 23.203 29.7797 23.2295 29.8013 23.2566 29.8359 23.2978 29.868 23.2957 29.8972 23.2501L30.2826 22.6501C30.3118 22.6058 30.3481 22.5688 30.3915 22.5396 34.6809 19.7022 40.7556 17.5868 45.8824 18.6713 47.4076 18.9949 48.7539 19.5819 50.0937 20.3607 50.1183 20.3755 50.1503 20.3676 50.1651 20.343 50.1716 20.3321 50.1739 20.3194 50.1718 20.3071 49.9788 19.17 49.6926 18.053 49.3133 16.9559 49.1799 16.5673 48.936 16.0779 48.7929 15.6063 48.6672 15.1901 48.5355 14.8567 48.3978 14.6063 47.6515 13.2437 46.9474 11.8486 45.9035 10.6779 44.8868 9.54082 43.8088 8.46548 42.6694 7.45195 41.8125 6.68935 40.6304 6.12838 39.6207 5.29913 39.5802 5.26509 39.5313 5.24311 39.4792 5.23571 39.128 5.18584 38.8261 5.04872 38.5735 4.82433 38.1849 4.48125 37.8532 4.36743 37.463 4.08776 37.4142 4.05308 37.3671 4.0547 37.3215 4.09264 36.6288 4.67149 35.8337 3.60321 36.9817 3.27964 37.1779 3.34142 37.3362 3.50186 37.4565 3.76093 37.4739 3.79996 37.5134 3.81731 37.5752 3.81296 37.6305 3.80971 37.6446 3.7837 37.6175 3.73492 37.457 3.43573 37.2365 3.26338 36.9557 3.21785 32.7492 2.35119 28.8143 2.4016 24.6127 3.19671 23.577 3.39346 22.5184 3.88939 21.3851 4.08288 20.8648 4.17231 20.6193 4.4341 20.3038 4.80807 20.2698 4.84947 20.2248 4.88046 20.1738 4.8975 19.4713 5.13653 19.0795 5.52839 18.5136 5.96253 17.3624 6.84708 16.0632 7.86332 15.234 9.05355 15.1924 9.11325 15.2065 9.19498 15.2654 9.2361 15.2694 9.2389 15.2736 9.24147 15.2779 9.2438 16.6014 9.96358 17.9522 10.6096 19.3299 11.182 19.6225 11.3023 19.8518 11.4877 20.0908 11.6795 20.1342 11.7142 20.1407 11.7543 20.1103 11.7999 19.1169 13.2844 18.19 14.8649 16.9608 16.1673 16.9463 16.1821 16.9471 16.206 16.9627 16.2207 16.9681 16.2257 16.9748 16.2291 16.9819 16.2307 17.8274 16.377 18.6604 16.5759 19.4811 16.8274 20.3364 17.0892 20.8518 17.1917 21.1412 17.9835 21.1607 18.0388 21.1993 18.0746 21.2567 18.0908 21.545 18.1754 21.8984 18.2209 22.3168 18.2274 22.8306 18.2351 23.8025 18.3429 25.2322 18.551 25.6127 18.6063 26.3872 18.6399 27.5558 18.6518 28.2517 18.6599 29.4468 18.8356 30.4257 18.6486 30.4559 18.6442 30.4839 18.6652 30.4883 18.6954 30.4914 18.7177 30.4808 18.7396 30.4614 18.751 29.5249 19.2339 28.9005 19.8746 27.8046 19.9185 26.3574 19.9759 24.9108 20.0139 23.4648 20.0323 22.0502 20.0502 19.6843 19.3396 19.1982 21.2924 19.184 21.3489 19.1494 21.3684 19.0941 21.351 18.2632 21.0924 17.8567 20.7429 16.7819 20.7185 16.7299 20.7173 16.7255 20.7033 16.7689 20.6762 16.7905 20.662 16.8112 20.6546 16.8307 20.6534 17.1645 20.6307 17.505 20.6128 17.8518 20.5998 17.9032 20.5978 17.9495 20.5687 17.9738 20.5233 18.2209 20.0551 18.6079 19.751 18.8421 19.3169 19.0286 18.971 19.2225 18.6295 19.4242 18.2925 19.4437 18.2603 19.4333 18.2182 19.4011 18.1987 19.396 18.1957 19.3907 18.1933 19.3851 18.1917 17.823 17.7538 16.2491 17.3408 14.6632 16.9527 14.5153 16.9153 14.3722 16.8096 14.26 16.7153 14.2448 16.704 14.2422 16.6822 14.2543 16.6668 14.2583 16.6616 14.2637 16.6575 14.2698 16.6551 14.8307 16.4388 15.099 16.3462 15.3982 15.7868 15.9673 14.7223 16.6335 13.7294 17.3965 12.808 17.44 12.7553 17.4325 12.6774 17.3798 12.634 17.372 12.6276 17.3634 12.6221 17.3543 12.6177L13.4909 10.7478C13.4193 10.713 13.3739 10.6404 13.3738 10.5609L13.3738 8.61941C13.3738 8.55763 13.3478 8.54353 13.2958 8.57714 12.9457 8.80261 12.654 9.01453 12.421 9.2129 7.15927 13.6844 3.97069 19.2897 2.85525 26.029 1.96908 31.3818 2.99834 37.5296 5.98205 41.9068 8.15004 45.0873 11.0026 47.7089 14.5397 49.7718 15.4844 50.323 16.3218 50.9571 17.2242 51.549 17.2679 51.5783 17.2983 51.6231 17.3087 51.6742 17.4562 52.3571 17.571 53.0461 17.6535 53.7408 17.6811 53.975 17.8648 54.1701 17.8941 54.3392 18.2681 56.5733 18.8307 58.757 18.7949 61.1066 18.777 62.2497 18.06 63.2594 18.6616 64.3879 19.5022 65.9667 20.7851 67.5391 21.938 68.8756 22.7705 69.8415 23.4729 70.7862 24.2973 71.6951 24.7184 72.1601 25.1363 72.2382 25.72 72.1244 25.7808 72.1123 25.8236 72.0577 25.8208 71.9959 25.7786 71.1167 25.823 70.2426 25.9542 69.3732 25.9573 69.3542 25.9538 69.3346 25.9444 69.3179L24.0225 65.8838C23.997 65.8384 24.0124 65.7812 24.057 65.7562 24.0584 65.7553 24.06 65.7545 24.0615 65.7537L24.3542 65.6058C24.4062 65.5797 24.4441 65.5396 24.468 65.4854 25.0241 64.1797 25.655 63.3472 26.2517 62.2855 26.507 61.8302 26.4387 61.344 26.5834 60.8286 26.6534 60.583 26.8371 60.4676 26.9981 60.2839ZM53.3035 38.2126 52.8092 37.9735C52.6724 37.9079 52.5082 37.9654 52.4425 38.1022 52.4145 38.1604 52.4079 38.2264 52.4238 38.289 52.6709 39.2402 52.8498 41.1475 52.5246 42.0743 52.483 42.1925 52.5282 42.3234 52.6335 42.3898L53.6904 43.0613C53.7483 43.0976 53.7657 43.1738 53.7295 43.2317 53.7225 43.2429 53.7137 43.2528 53.7034 43.2613L52.7652 44.0174 52.3246 44.1149C52.2714 44.1268 52.2656 44.1507 52.3067 44.1865 53.5566 45.2998 54.7803 46.4429 55.9782 47.6157 57.3441 48.9539 59.0335 49.7149 60.8969 50.0937 62.0058 50.3181 62.9229 50.9962 63.9098 51.6579 65.0817 52.4438 66.0469 53.1392 66.8057 53.7441 66.9228 53.8368 67.1472 53.9587 67.2594 53.9994 67.4514 54.0678 67.6625 53.9677 67.7309 53.7756 67.7347 53.7652 67.7379 53.7548 67.7407 53.7441 68.0106 52.6986 68.2447 51.549 68.583 50.6563 69.8626 47.2694 72.5195 45.1426 75.9292 44.0971 76.0897 44.0483 76.2544 44.025 76.4235 44.0271 76.4951 44.0271 76.5076 44.0548 76.4609 44.1101L76.3325 44.2597C76.1752 44.2023 76.0647 44.2358 76.0008 44.3605 75.9736 44.4146 75.9873 44.4553 76.0414 44.4824 76.1173 44.5226 76.2142 44.5307 76.3325 44.5068 76.3833 44.587 76.4528 44.6292 76.5406 44.6336 76.597 44.6357 76.6251 44.6088 76.6251 44.5523L76.6251 44.3979C76.6251 44.3523 76.6409 44.3133 76.6723 44.2808 76.9731 43.967 77.3032 43.7507 77.5763 43.4044 78.1682 42.6548 79.0999 41.8125 80.1064 42.1312 80.1736 42.1529 80.1823 42.1886 80.1324 42.2385L78.7975 43.554C78.7508 43.6006 78.7596 43.6309 78.8235 43.645 79.5271 43.8076 80.2386 43.9138 80.9584 43.9637 81.4869 44.0011 81.9486 44.1507 82.443 44.2889 82.4961 44.3031 82.5433 44.2927 82.5844 44.258 83.2706 43.671 84.2299 43.058 84.7015 42.3426 85.4787 41.1638 85.5356 39.3117 85.3828 37.8727 85.3763 37.8056 85.3172 37.7162 85.2055 37.6044 85.1372 37.5362 85.0478 37.4841 84.9372 37.4483 83.96 37.1345 82.9064 36.6793 82.2738 35.8402 82.0104 35.4907 81.6072 35.3118 81.2804 35.0126 81.2402 34.9757 81.2197 34.9302 81.2186 34.876 81.2153 34.5931 81.2104 34.3313 81.2625 34.0419 81.8218 30.9671 81.3096 28.0485 80.4609 24.9883 80.3482 24.5807 80.1405 24.0522 79.8381 23.403 79.8142 23.3531 79.7784 23.3417 79.7308 23.3688 78.0202 24.3498 76.4263 25.4913 74.9487 26.7932 74.5146 27.1753 73.9032 27.533 73.4463 27.9948 72.7423 28.7102 72.2788 29.0989 71.6512 29.6436 71.6045 29.6847 71.5499 29.7054 71.487 29.7054L68.4025 29.72C68.3623 29.72 68.3252 29.7418 68.3049 29.7769 68.1282 30.0847 67.9244 30.1156 67.6935 29.8696 66.435 28.5281 62.2139 23.9379 61.0513 23.9412 60.9964 23.9412 60.9439 23.9641 60.9066 24.0046 60.6421 24.2875 60.3809 24.687 60.1229 25.203 59.4486 26.5514 58.9359 27.6945 58.5847 28.6322 58.4205 29.0712 58.3359 29.5997 58.1896 30.0793 57.6351 31.9004 57.6319 33.9053 57.7083 35.9736 57.7136 36.1243 57.6177 36.1887 57.4205 36.1671 57.3671 36.1609 57.3137 36.1801 57.2758 36.2191 57.0644 36.4349 56.7989 36.5367 56.479 36.5248 56.4333 36.523 56.3948 36.5588 56.393 36.6045 56.3927 36.615 56.3941 36.6254 56.3977 36.6353L56.466 36.8337C56.4867 36.8955 56.4693 36.9432 56.414 36.9768 56.1181 37.1633 55.7961 37.2874 55.4481 37.3492 55.3989 37.3576 55.3542 37.3843 55.3229 37.424 54.9218 37.9204 54.4156 38.0505 53.8043 37.8142 53.7534 37.7935 53.7039 37.7975 53.6563 37.8256 53.5153 37.908 53.3978 38.037 53.3035 38.2126ZM70.6886 56.3327 69.726 56.4709C69.694 56.475 69.6712 56.5044 69.6755 56.5364 69.6769 56.5483 69.6821 56.5595 69.6903 56.5685 70.0589 56.9901 70.4914 57.3371 70.9878 57.6091 72.8301 62.5846 78.1097 64.4009 82.8755 62.4009 82.9828 62.3554 83.1182 62.2307 83.282 62.0269 83.3166 61.9847 83.3068 61.9598 83.2527 61.9521 82.4506 61.8448 81.688 61.6334 80.9649 61.318 80.9238 61.2151 80.9313 61.138 80.9877 61.0871 81.7877 61.4253 82.9194 61.8318 83.7958 61.7147 83.8522 61.7082 83.9015 61.6871 83.9438 61.6513 85.586 60.2855 87.0478 58.1327 87.3372 55.9327 87.8348 52.1376 85.6006 48.1588 81.9926 46.7653 78.6528 45.4759 74.8349 46.5426 72.5878 49.2905 70.9184 51.3327 70.2854 53.6802 70.6886 56.3327ZM73.7309 67.4935C73.6539 67.048 73.4653 66.6378 73.165 66.2626 72.959 65.9862 72.7645 65.7049 72.5813 65.4188 72.3748 65.0919 72.0138 64.7993 71.8691 64.3391 71.8528 64.2871 71.8122 64.2464 71.7601 64.2302 71.352 64.1001 71.248 63.5277 71.0626 63.1684 71.0377 63.1196 70.998 63.0892 70.9439 63.0773 70.7174 63.0297 70.6203 62.8811 70.6528 62.6318 70.4296 61.7874 69.9395 61.138 69.1829 60.6839 68.242 59.0188 67.6431 57.2346 67.3862 55.3311 67.3797 55.2812 67.3509 55.2551 67.3 55.253 66.4111 55.2281 65.5217 55.1929 64.6318 55.1473 64.1082 55.1197 63.8172 55.4481 63.4757 55.601 62.9728 55.8265 62.4606 56.06 61.9391 56.3018 61.6799 56.4224 61.5297 56.6985 61.5684 56.9831 61.7034 57.9587 62.3733 59.6042 63.0253 60.4839 63.6811 61.3717 64.3965 62.1001 65.1716 62.6692 67.3428 64.2615 69.8273 65.7949 72.6252 67.2691 73.0463 67.4903 73.487 67.6008 73.9406 67.7293 73.9666 67.7369 73.9878 67.7337 74.004 67.7196 74.0377 67.6914 74.0333 67.6696 73.991 67.6545 73.8317 67.596 73.745 67.5423 73.7309 67.4935ZM31.4549 66.2041 31.5557 65.6106C31.5596 65.5887 31.5452 65.5675 31.5232 65.5635L31.4988 65.5602C31.3183 65.5297 31.1473 65.6505 31.1167 65.8301L31.1135 65.8529C31.0832 66.0324 31.2047 66.2027 31.385 66.2334L31.4094 66.2366C31.4309 66.2396 31.4509 66.2253 31.4549 66.2041Z" stroke="#000000" stroke-width="0.325221" stroke-linecap="butt" stroke-linejoin="miter" stroke-miterlimit="4" stroke-opacity="1" fill="#041033" fill-rule="nonzero" fill-opacity="1" transform="matrix(1 0 0 1.00079 256.78 156.723)"/><path d="M36.9557 3.21785C36.9394 3.28398 36.948 3.30456 36.9817 3.27964 35.8337 3.60321 36.6288 4.67149 37.3215 4.09264 37.3671 4.0547 37.4142 4.05308 37.463 4.08776 37.8532 4.36743 38.1849 4.48125 38.5735 4.82433 38.8261 5.04872 39.128 5.18584 39.4792 5.23571 39.5313 5.24311 39.5802 5.26509 39.6207 5.29913 40.6304 6.12838 41.8125 6.68935 42.6694 7.45195 43.8088 8.46548 44.8868 9.54082 45.9035 10.6779 46.9474 11.8486 47.6515 13.2437 48.3978 14.6063 48.5355 14.8567 48.6672 15.1901 48.7929 15.6063 48.936 16.0779 49.1799 16.5673 49.3133 16.9559 49.6926 18.053 49.9788 19.17 50.1718 20.3071 50.1768 20.3354 50.158 20.3624 50.1297 20.3674 50.1173 20.3695 50.1045 20.3672 50.0937 20.3607 48.7539 19.5819 47.4076 18.9949 45.8824 18.6713 40.7556 17.5868 34.6809 19.7022 30.3915 22.5396 30.3481 22.5688 30.3118 22.6058 30.2826 22.6501L29.8972 23.2501C29.868 23.2957 29.8359 23.2978 29.8013 23.2566 29.7797 23.2295 29.7801 23.203 29.8029 23.177 29.9406 23.0253 30.0436 22.8757 30.1118 22.7282 30.1432 22.6588 30.1211 22.6209 30.0452 22.6144 29.7569 22.5916 29.4988 22.661 29.2712 22.8225 29.1359 22.9175 28.9494 22.8848 28.8545 22.7495 28.8291 22.7136 28.812 22.6724 28.8045 22.629 28.6919 21.9689 28.4696 21.3445 28.1379 20.7559 28.1119 20.7103 28.0728 20.6903 28.0208 20.6957L27.5411 20.7445C27.5015 20.7485 27.4657 20.7721 27.4452 20.8079 27.172 21.3043 27.0415 21.8367 27.0533 22.4046 27.0545 22.4643 27.0322 22.5136 26.9867 22.5526 26.6794 22.8127 26.8338 23.2323 26.7395 23.3038 26.7038 23.3319 26.6777 23.3249 26.6615 23.2827 26.5672 23.042 26.4534 22.8566 26.4664 22.5835 26.4826 22.2062 26.507 21.6957 26.2322 21.3998 26.1265 21.2846 25.9472 21.2775 25.8316 21.3838 25.8116 21.4024 25.7942 21.4235 25.7802 21.4469L24.5347 23.5396C24.4596 23.6646 24.4596 23.821 24.5347 23.9461L25.2908 25.2192C25.3213 25.27 25.3049 25.336 25.254 25.3665 25.2517 25.3678 25.2493 25.3691 25.2469 25.3704 22.216 26.9314 19.6811 28.5997 17.2128 31.3167 14.7088 34.0744 12.1121 39.05 13.6096 42.8125 14.0112 43.8223 16.2453 44.4792 17.1868 44.5702 19.7591 44.8206 21.5851 42.5881 23.3444 41.1475 30.3314 35.4256 39.0239 33.1167 47.8856 35.2028 49.4986 35.5822 50.8828 36.0869 52.0384 36.7167 52.1035 36.7513 52.1002 36.7789 52.0287 36.7996 51.2921 37.0093 50.1637 37.3036 49.71 37.9622 49.6763 38.0109 49.6791 38.0581 49.7181 38.1036 49.9198 38.3324 50.1685 38.4521 50.4645 38.463 50.523 38.4651 50.5625 38.4939 50.5832 38.5492 50.8531 39.2841 50.9892 40.0358 50.9913 40.8044 50.9929 41.3589 50.7962 41.9963 50.6807 42.5702 50.5441 43.2515 50.0905 43.845 49.8206 44.4889 49.7967 44.5453 49.8146 44.5795 49.8742 44.5914 52.5555 45.1588 54.3018 47.9604 56.4254 49.4092 57.9814 50.471 60.1261 50.8206 61.4221 51.3799 62.5429 51.8644 63.5939 52.5462 64.5749 53.4254 64.6518 53.4948 64.6497 53.562 64.5684 53.627 64.4399 53.7295 64.3033 53.7847 64.196 53.9311 63.2285 55.266 62.3001 55.1181 60.8822 55.5051 60.3598 55.6481 59.7273 55.7787 58.9847 55.8969 57.4899 56.1355 56.0059 56.6363 54.5327 57.3993 52.8791 58.2562 53.1262 61.0172 53.3213 62.5066 53.4319 63.3391 53.7408 64.2334 53.9083 65.1196 53.981 65.5077 54.1647 66.0453 54.4595 66.7326 55.1213 68.2724 55.692 69.726 56.2872 71.2317 56.3153 71.3054 56.2925 71.3293 56.2189 71.3032 55.1099 70.9195 53.6287 70.1683 52.9067 69.1732 51.2038 66.8274 49.9063 64.8703 49.0141 63.3017 47.6531 60.9131 46.9393 58.9262 46.3361 56.4839 46.0678 55.3994 46.0694 54.4417 46.1247 53.3652 46.1398 53.0909 46.2109 52.7186 46.3377 52.2482 46.845 50.3702 47.0434 48.4059 47.5393 46.5198 47.5476 46.4951 47.5344 46.4684 47.5097 46.4601 47.4866 46.4523 47.4614 46.4634 47.4515 46.4856 46.0157 49.4157 44.9198 52.4905 45.1019 55.8026 45.1052 55.8558 45.0803 55.8795 45.0271 55.8742 42.7258 55.6346 40.4299 55.3478 38.1394 55.014 37.9085 54.9799 37.6679 55.0059 37.4532 54.8368 37.4033 54.7977 37.3979 54.7527 37.437 54.7018 38.7752 52.9604 39.3752 51.0336 38.4841 48.9474 37.1703 45.8726 34.9801 43.7523 32.4809 41.6255 32.4611 41.6091 32.4313 41.6114 32.4144 41.6304 32.4001 41.6467 32.3995 41.6702 32.4126 41.6873 33.1606 42.6976 33.9497 43.6803 34.7801 44.6353 36.4207 46.5214 38.2337 49.0238 37.7898 51.6027 37.7106 52.0666 37.495 52.6786 37.1427 53.4384 36.5529 54.7121 36.069 55.8444 35.6906 56.8351 35.424 57.5343 35.1731 58.072 34.9378 58.4481 33.4175 60.8773 31.3574 62.5277 29.3232 64.4789 28.7184 65.0578 28.2387 65.7748 27.6924 66.4318 27.2598 66.9504 26.707 67.3033 26.1607 66.7586 25.546 66.1456 26.2029 64.5131 26.5867 63.8952 26.8859 63.4155 27.2062 62.97 27.1883 62.3733 27.1764 62.0079 27.152 61.6432 27.1151 61.279 27.1101 61.2282 27.0802 61.1837 27.0355 61.1603L26.8989 61.0904C26.8457 61.0622 26.8225 61.0177 26.829 60.957 26.8399 60.866 26.8919 60.8047 26.9851 60.7733 27.2473 60.7505 27.3981 60.8128 27.4371 60.9603 27.5054 61.2107 27.0013 61.8334 27.5737 61.9342 27.6343 61.9451 27.6675 61.9201 27.6729 61.8595 27.726 61.2655 27.6089 60.7115 27.3216 60.1977 27.2909 60.1426 27.2236 60.1195 27.1655 60.144 27.0821 60.1787 27.0262 60.2253 26.9981 60.2839 26.8371 60.4676 26.6534 60.583 26.5834 60.8286 26.4387 61.344 26.507 61.8302 26.2517 62.2855 25.655 63.3472 25.0241 64.1797 24.468 65.4854 24.4441 65.5396 24.4062 65.5797 24.3542 65.6058L24.0615 65.7537C24.0157 65.7763 23.997 65.8324 24.0201 65.8792 24.0209 65.8807 24.0217 65.8823 24.0225 65.8838L25.9444 69.3179C25.9538 69.3346 25.9573 69.3542 25.9542 69.3732 25.823 70.2426 25.7786 71.1167 25.8208 71.9959 25.8236 72.0577 25.7808 72.1123 25.72 72.1244 25.1363 72.2382 24.7184 72.1601 24.2973 71.6951 23.4729 70.7862 22.7705 69.8415 21.938 68.8756 20.7851 67.5391 19.5022 65.9667 18.6616 64.3879 18.06 63.2594 18.777 62.2497 18.7949 61.1066 18.8307 58.757 18.2681 56.5733 17.8941 54.3392 17.8648 54.1701 17.6811 53.975 17.6535 53.7408 17.571 53.0461 17.4562 52.3571 17.3087 51.6742 17.2983 51.6231 17.2679 51.5783 17.2242 51.549 16.3218 50.9571 15.4844 50.323 14.5397 49.7718 11.0026 47.7089 8.15004 45.0873 5.98205 41.9068 2.99834 37.5296 1.96908 31.3818 2.85525 26.029 3.97069 19.2897 7.15927 13.6844 12.421 9.2129 12.654 9.01453 12.9457 8.80261 13.2958 8.57714 13.3478 8.54353 13.3738 8.55763 13.3738 8.61941L13.3738 10.5609C13.3739 10.6404 13.4193 10.713 13.4909 10.7478L17.3543 12.6177C17.4159 12.647 17.4421 12.7208 17.4128 12.7824 17.4084 12.7916 17.4031 12.8002 17.3965 12.808 16.6335 13.7294 15.9673 14.7223 15.3982 15.7868 15.099 16.3462 14.8307 16.4388 14.2698 16.6551 14.2515 16.6626 14.2421 16.6829 14.2488 16.7005 14.2511 16.7065 14.2549 16.7115 14.26 16.7153 14.3722 16.8096 14.5153 16.9153 14.6632 16.9527 16.2491 17.3408 17.823 17.7538 19.3851 18.1917 19.4212 18.2024 19.4419 18.2404 19.4312 18.2765 19.4295 18.2821 19.4273 18.2874 19.4242 18.2925 19.2225 18.6295 19.0286 18.971 18.8421 19.3169 18.6079 19.751 18.2209 20.0551 17.9738 20.5233 17.9495 20.5687 17.9032 20.5978 17.8518 20.5998 17.505 20.6128 17.1645 20.6307 16.8307 20.6534 16.8112 20.6546 16.7905 20.662 16.7689 20.6762 16.7255 20.7033 16.7299 20.7173 16.7819 20.7185 17.8567 20.7429 18.2632 21.0924 19.0941 21.351 19.1494 21.3684 19.184 21.3489 19.1982 21.2924 19.6843 19.3396 22.0502 20.0502 23.4648 20.0323 24.9108 20.0139 26.3574 19.9759 27.8046 19.9185 28.9005 19.8746 29.5249 19.2339 30.4614 18.751 30.4878 18.7356 30.4967 18.7017 30.4813 18.6754 30.4699 18.656 30.4479 18.6453 30.4257 18.6486 29.4468 18.8356 28.2517 18.6599 27.5558 18.6518 26.3872 18.6399 25.6127 18.6063 25.2322 18.551 23.8025 18.3429 22.8306 18.2351 22.3168 18.2274 21.8984 18.2209 21.545 18.1754 21.2567 18.0908 21.1993 18.0746 21.1607 18.0388 21.1412 17.9835 20.8518 17.1917 20.3364 17.0892 19.4811 16.8274 18.6604 16.5759 17.8274 16.377 16.9819 16.2307 16.9609 16.2261 16.9471 16.2059 16.9512 16.1856 16.9525 16.1787 16.9559 16.1723 16.9608 16.1673 18.19 14.8649 19.1169 13.2844 20.1103 11.7999 20.1407 11.7543 20.1342 11.7142 20.0908 11.6795 19.8518 11.4877 19.6225 11.3023 19.3299 11.182 17.9522 10.6096 16.6014 9.96358 15.2779 9.2438 15.2147 9.20965 15.1915 9.13012 15.2262 9.06619 15.2285 9.06183 15.2311 9.05762 15.234 9.05355 16.0632 7.86332 17.3624 6.84708 18.5136 5.96253 19.0795 5.52839 19.4713 5.13653 20.1738 4.8975 20.2248 4.88046 20.2698 4.84947 20.3038 4.80807 20.6193 4.4341 20.8648 4.17231 21.3851 4.08288 22.5184 3.88939 23.577 3.39346 24.6127 3.19671 28.8143 2.4016 32.7492 2.35119 36.9557 3.21785Z" stroke="#000000" stroke-width="0.325221" stroke-linecap="butt" stroke-linejoin="miter" stroke-miterlimit="4" stroke-opacity="1" fill="#FFFFFF" fill-rule="nonzero" fill-opacity="1" transform="matrix(1 0 0 1.00079 256.78 156.723)"/><path d="M36.9557 3.21785C37.2365 3.26338 37.457 3.43573 37.6175 3.73492 37.6446 3.7837 37.6305 3.80971 37.5752 3.81296 37.5134 3.81731 37.4739 3.79996 37.4565 3.76093 37.3362 3.50186 37.1779 3.34142 36.9817 3.27964 36.948 3.30456 36.9394 3.28398 36.9557 3.21785Z" stroke="#000000" stroke-width="0.325221" stroke-linecap="butt" stroke-linejoin="miter" stroke-miterlimit="4" stroke-opacity="1" fill="#97ACC1" fill-rule="nonzero" fill-opacity="1" transform="matrix(1 0 0 1.00079 256.78 156.723)"/><path d="M76.3325 44.5068 76.3325 44.2597 76.4609 44.1101C76.5076 44.0548 76.4951 44.0271 76.4235 44.0271 76.2544 44.025 76.0897 44.0483 75.9292 44.0971 72.5195 45.1426 69.8626 47.2694 68.583 50.6563 68.2447 51.549 68.0106 52.6986 67.7407 53.7441 67.6896 53.9415 67.4883 54.06 67.2909 54.0091 67.2804 54.0064 67.2698 54.0031 67.2594 53.9994 67.1472 53.9587 66.9228 53.8368 66.8057 53.7441 66.0469 53.1392 65.0817 52.4438 63.9098 51.6579 62.9229 50.9962 62.0058 50.3181 60.8969 50.0937 59.0335 49.7149 57.3441 48.9539 55.9782 47.6157 54.7803 46.4429 53.5566 45.2998 52.3067 44.1865 52.2656 44.1507 52.2714 44.1268 52.3246 44.1149L52.7652 44.0174C52.9945 44.1784 53.2742 43.9865 53.4595 43.7962 53.8152 43.4309 54.2091 43.1415 54.6416 42.928 54.736 42.8797 54.7732 42.7641 54.7249 42.6698 54.6917 42.605 54.6249 42.5647 54.5522 42.5654 54.4948 42.5665 54.4254 42.6039 54.3441 42.6776 54.2932 42.7231 54.2412 42.7247 54.188 42.6824 54.0373 42.561 53.8617 42.5226 53.6612 42.567 53.6038 42.5805 53.543 42.566 53.4969 42.528 52.8059 41.954 53.253 41.554 53.2189 40.8776 53.1734 39.9779 53.2015 39.0895 53.3035 38.2126 53.3978 38.037 53.5153 37.908 53.6563 37.8256 53.7039 37.7975 53.7534 37.7935 53.8043 37.8142 54.4156 38.0505 54.9218 37.9204 55.3229 37.424 55.3542 37.3843 55.3989 37.3576 55.4481 37.3492 55.7961 37.2874 56.1181 37.1633 56.414 36.9768 56.4693 36.9432 56.4867 36.8955 56.466 36.8337L56.3977 36.6353C56.3824 36.5923 56.405 36.5448 56.4481 36.5295 56.4581 36.5259 56.4686 36.5245 56.479 36.5248 56.7989 36.5367 57.0644 36.4349 57.2758 36.2191 57.3137 36.1801 57.3671 36.1609 57.4205 36.1671 57.6177 36.1887 57.7136 36.1243 57.7083 35.9736 57.6319 33.9053 57.6351 31.9004 58.1896 30.0793 58.3359 29.5997 58.4205 29.0712 58.5847 28.6322 58.9359 27.6945 59.4486 26.5514 60.1229 25.203 60.3809 24.687 60.6421 24.2875 60.9066 24.0046 60.9439 23.9641 60.9964 23.9412 61.0513 23.9412 62.2139 23.9379 66.435 28.5281 67.6935 29.8696 67.9244 30.1156 68.1282 30.0847 68.3049 29.7769 68.3252 29.7418 68.3623 29.72 68.4025 29.72L71.487 29.7054C71.5499 29.7054 71.6045 29.6847 71.6512 29.6436 72.2788 29.0989 72.7423 28.7102 73.4463 27.9948 73.9032 27.533 74.5146 27.1753 74.9487 26.7932 76.4263 25.4913 78.0202 24.3498 79.7308 23.3688 79.7784 23.3417 79.8142 23.3531 79.8381 23.403 80.1405 24.0522 80.3482 24.5807 80.4609 24.9883 81.3096 28.0485 81.8218 30.9671 81.2625 34.0419 81.2104 34.3313 81.2153 34.5931 81.2186 34.876 81.2197 34.9302 81.2402 34.9757 81.2804 35.0126 81.6072 35.3118 82.0104 35.4907 82.2738 35.8402 82.9064 36.6793 83.96 37.1345 84.9372 37.4483 85.0478 37.4841 85.1372 37.5362 85.2055 37.6044 85.3172 37.7162 85.3763 37.8056 85.3828 37.8727 85.5356 39.3117 85.4787 41.1638 84.7015 42.3426 84.2299 43.058 83.2706 43.671 82.5844 44.258 82.5433 44.2927 82.4961 44.3031 82.443 44.2889 81.9486 44.1507 81.4869 44.0011 80.9584 43.9637 80.2386 43.9138 79.5271 43.8076 78.8235 43.645 78.7596 43.6309 78.7508 43.6006 78.7975 43.554L80.1324 42.2385C80.1823 42.1886 80.1736 42.1529 80.1064 42.1312 79.0999 41.8125 78.1682 42.6548 77.5763 43.4044 77.3032 43.7507 76.9731 43.967 76.6723 44.2808 76.6409 44.3133 76.6251 44.3523 76.6251 44.3979L76.6251 44.5523C76.6251 44.6088 76.597 44.6357 76.5406 44.6336 76.4528 44.6292 76.3833 44.587 76.3325 44.5068ZM77.5568 30.4403 78.1698 29.7054C78.2012 29.6675 78.2045 29.6268 78.1796 29.5834 78.171 29.5683 78.1693 29.5471 78.1747 29.52 78.1807 29.4919 78.1627 29.4642 78.1347 29.4582 78.1157 29.4543 78.096 29.4611 78.0837 29.4761L77.0755 30.6062C77.0105 30.6769 76.9004 30.6816 76.8297 30.6166 76.7855 30.5761 76.7653 30.5156 76.7764 30.4566L77.017 29.2354C77.0268 29.1878 77.0479 29.1465 77.0804 29.1119 77.3016 28.8756 77.5775 28.7439 77.9081 28.7167 77.9742 28.7114 78.0072 28.675 78.0072 28.6078L78.0072 28.5037C78.0072 28.4431 77.9768 28.4164 77.9162 28.4241 77.3937 28.4837 76.9975 28.7325 76.7276 29.1704 76.6874 29.2366 76.65 29.2772 76.6154 29.2923 76.5492 29.3228 76.4881 29.2989 76.4316 29.2208 76.3938 29.1683 76.3206 29.1566 76.2682 29.1943 76.2442 29.2117 76.2277 29.2374 76.2219 29.2663 76.2024 29.3595 76.2235 29.431 76.2853 29.481 76.3297 29.5167 76.3401 29.5601 76.3162 29.611 76.0658 30.1455 76.2321 30.5367 76.8154 30.785 76.9629 30.8489 77.0077 30.9753 76.9503 31.1639 76.9352 31.2153 76.9487 31.271 76.9861 31.3102 77.1238 31.4512 77.1329 31.5952 77.0137 31.7427 76.9757 31.7892 76.9832 31.8583 77.0305 31.897 77.0318 31.8982 77.0334 31.8993 77.0349 31.9004L77.1568 31.9882C77.2024 32.0219 77.2664 32.0123 77.3001 31.9668 77.3045 31.9608 77.3082 31.9544 77.3113 31.9476 77.5986 31.32 77.9541 30.7314 78.378 30.1818 78.4051 30.1471 78.4398 30.1281 78.482 30.1249 78.6186 30.113 78.7036 30.044 78.7373 29.9184 78.7495 29.8733 78.723 29.8268 78.678 29.8146 78.675 29.8138 78.6719 29.8132 78.669 29.8127 78.2105 29.7395 77.9763 30.2224 77.6365 30.5183 77.6149 30.5403 77.5796 30.5408 77.5576 30.5192 77.5357 30.4975 77.5352 30.4623 77.5568 30.4403ZM62.7798 30.2549C62.9424 30.6777 63.0464 31.5574 62.5473 31.811 61.9087 32.1351 61.2704 32.4577 60.6318 32.7785 60.505 32.8424 60.4318 32.9378 60.4123 33.0647 60.4073 33.1021 60.4328 33.1365 60.4692 33.1419 60.4808 33.1437 60.4925 33.1422 60.5034 33.1378 61.0551 32.9146 61.6095 32.6956 62.1668 32.4809 62.4936 32.3541 62.8107 32.4354 63.1603 32.398 63.2176 32.3926 63.2464 32.4187 63.2464 32.476 63.2464 32.6321 63.3201 32.7416 63.4676 32.8045 63.5217 32.8273 63.5521 32.8094 63.5586 32.7508 63.6562 31.9021 63.7212 31.2777 63.4318 30.4566 63.2806 30.0306 63.2903 29.5574 62.9212 29.1167 62.8816 29.0693 62.8107 29.0629 62.7632 29.1026 62.7627 29.1029 62.7624 29.1034 62.7619 29.1037 62.6177 29.2294 62.4529 29.2549 62.2676 29.1802 62.2209 29.1628 62.1749 29.1628 62.1294 29.1802 61.6172 29.3736 61.1359 30.2045 61.2741 30.7362 61.2915 30.8034 61.3256 30.8131 61.3765 30.7655 61.7289 30.4338 62.1505 30.2359 62.6416 30.172 62.7007 30.1644 62.7578 30.1987 62.7798 30.2549ZM65.1293 45.4499C65.0924 45.4413 65.1158 45.4206 65.1992 45.3881 65.802 45.684 66.1005 46.1491 66.0952 46.7832 66.094 46.8346 66.0662 46.8816 66.022 46.9068L65.5684 47.1637C65.5384 47.1816 65.528 47.2203 65.5449 47.25 65.556 47.2695 65.5768 47.2814 65.5992 47.2808 66.6789 47.2661 67.4984 46.4694 66.5098 45.5214 65.6984 44.7442 64.944 44.5166 63.8968 44.3605 63.3342 44.2759 62.7684 43.7865 62.4155 44.6531 62.3868 44.7249 62.4214 44.8063 62.4931 44.8351 62.4933 44.8351 62.4934 44.8353 62.4936 44.8353 62.9315 45.0076 63.351 45.2185 63.7521 45.4678 64.1342 45.7068 64.3635 45.658 64.7944 45.6418 64.9841 45.6353 65.0957 45.5713 65.1293 45.4499Z" stroke="#000000" stroke-width="0.325221" stroke-linecap="butt" stroke-linejoin="miter" stroke-miterlimit="4" stroke-opacity="1" fill="#FFFFFF" fill-rule="nonzero" fill-opacity="1" transform="matrix(1 0 0 1.00079 256.78 156.723)"/><path d="M77.6365 30.5183C77.9763 30.2224 78.2105 29.7395 78.669 29.8127 78.7152 29.82 78.7466 29.8634 78.7393 29.9094 78.7388 29.9125 78.7381 29.9154 78.7373 29.9184 78.7036 30.044 78.6186 30.113 78.482 30.1249 78.4398 30.1281 78.4051 30.1471 78.378 30.1818 77.9541 30.7314 77.5986 31.32 77.3113 31.9476 77.2882 31.9993 77.2277 32.0226 77.176 31.9995 77.1692 31.9964 77.1629 31.9926 77.1568 31.9882L77.0349 31.9004C76.9856 31.8642 76.9747 31.7956 77.0103 31.7471 77.0115 31.7457 77.0126 31.7442 77.0137 31.7427 77.1329 31.5952 77.1238 31.4512 76.9861 31.3102 76.9487 31.271 76.9352 31.2153 76.9503 31.1639 77.0077 30.9753 76.9629 30.8489 76.8154 30.785 76.2321 30.5367 76.0658 30.1455 76.3162 29.611 76.3401 29.5601 76.3297 29.5167 76.2853 29.481 76.2235 29.431 76.2024 29.3595 76.2219 29.2663 76.2346 29.2029 76.2962 29.1618 76.3596 29.1745 76.3886 29.1803 76.4144 29.1969 76.4316 29.2208 76.4881 29.2989 76.5492 29.3228 76.6154 29.2923 76.65 29.2772 76.6874 29.2366 76.7276 29.1704 76.9975 28.7325 77.3937 28.4837 77.9162 28.4241 77.9768 28.4164 78.0072 28.4431 78.0072 28.5037L78.0072 28.6078C78.0072 28.675 77.9742 28.7114 77.9081 28.7167 77.5775 28.7439 77.3016 28.8756 77.0804 29.1119 77.0479 29.1465 77.0268 29.1878 77.017 29.2354L76.7764 30.4566C76.7588 30.551 76.8211 30.6419 76.9154 30.6595 76.9744 30.6705 77.0349 30.6504 77.0755 30.6062L78.0837 29.4761C78.1019 29.454 78.1347 29.4507 78.1568 29.4689 78.1719 29.4813 78.1788 29.501 78.1747 29.52 78.1693 29.5471 78.171 29.5683 78.1796 29.5834 78.2045 29.6268 78.2012 29.6675 78.1698 29.7054L77.5568 30.4403C77.5352 30.4623 77.5357 30.4975 77.5576 30.5192 77.5796 30.5408 77.6149 30.5403 77.6365 30.5183Z" stroke="#000000" stroke-width="0.325221" stroke-linecap="butt" stroke-linejoin="miter" stroke-miterlimit="4" stroke-opacity="1" fill="#97ACC1" fill-rule="nonzero" fill-opacity="1" transform="matrix(1 0 0 1.00079 256.78 156.723)"/><path d="M62.6416 30.172C62.1505 30.2359 61.7289 30.4338 61.3765 30.7655 61.3256 30.8131 61.2915 30.8034 61.2741 30.7362 61.1359 30.2045 61.6172 29.3736 62.1294 29.1802 62.1749 29.1628 62.2209 29.1628 62.2676 29.1802 62.4529 29.2549 62.6177 29.2294 62.7619 29.1037 62.8089 29.0632 62.8796 29.0684 62.9201 29.1154 62.9204 29.1159 62.9209 29.1163 62.9212 29.1167 63.2903 29.5574 63.2806 30.0306 63.4318 30.4566 63.7212 31.2777 63.6562 31.9021 63.5586 32.7508 63.5521 32.8094 63.5217 32.8273 63.4676 32.8045 63.3201 32.7416 63.2464 32.6321 63.2464 32.476 63.2464 32.4187 63.2176 32.3926 63.1603 32.398 62.8107 32.4354 62.4936 32.3541 62.1668 32.4809 61.6095 32.6956 61.0551 32.9146 60.5034 33.1378 60.4692 33.1518 60.4304 33.1347 60.4165 33.0996 60.4122 33.0886 60.4107 33.0765 60.4123 33.0647 60.4318 32.9378 60.505 32.8424 60.6318 32.7785 61.2704 32.4577 61.9087 32.1351 62.5473 31.811 63.0464 31.5574 62.9424 30.6777 62.7798 30.2549 62.7578 30.1987 62.7007 30.1644 62.6416 30.172ZM61.5375 29.9655C61.4378 30.1476 61.4882 30.211 61.6887 30.1558 62.157 30.0289 62.7212 30.0013 62.8936 29.4387 62.9136 29.3743 62.877 29.3062 62.8116 29.2865 62.7793 29.2769 62.7443 29.2806 62.7147 29.2972L62.5456 29.3948C62.5131 29.4132 62.4785 29.4224 62.4416 29.4224 62.0362 29.4245 61.7347 29.6057 61.5375 29.9655Z" stroke="#000000" stroke-width="0.325221" stroke-linecap="butt" stroke-linejoin="miter" stroke-miterlimit="4" stroke-opacity="1" fill="#97ACC1" fill-rule="nonzero" fill-opacity="1" transform="matrix(1 0 0 1.00079 256.78 156.723)"/><path d="M61.5375 29.9655C61.7347 29.6057 62.0362 29.4245 62.4416 29.4224 62.4785 29.4224 62.5131 29.4132 62.5456 29.3948L62.7147 29.2972C62.7741 29.2639 62.8495 29.2844 62.883 29.3429 62.8998 29.372 62.9035 29.4067 62.8936 29.4387 62.7212 30.0013 62.157 30.0289 61.6887 30.1558 61.4882 30.211 61.4378 30.1476 61.5375 29.9655Z" stroke="#000000" stroke-width="0.325221" stroke-linecap="butt" stroke-linejoin="miter" stroke-miterlimit="4" stroke-opacity="1" fill="#FFFFFF" fill-rule="nonzero" fill-opacity="1" transform="matrix(1 0 0 1.00079 256.78 156.723)"/><path d="M53.3035 38.2126C53.2015 39.0895 53.1734 39.9779 53.2189 40.8776 53.253 41.554 52.8059 41.954 53.4969 42.528 53.5431 42.566 53.6038 42.5805 53.6612 42.567 53.8617 42.5226 54.0373 42.561 54.188 42.6824 54.2412 42.7247 54.2932 42.7231 54.3441 42.6776 54.4254 42.6039 54.4948 42.5665 54.5522 42.5654 54.6582 42.5644 54.7449 42.6494 54.746 42.7553 54.7467 42.828 54.7064 42.8948 54.6416 42.928 54.2091 43.1415 53.8152 43.4309 53.4595 43.7962 53.2742 43.9865 52.9945 44.1784 52.7652 44.0174L53.7034 43.2613C53.7561 43.2179 53.7636 43.14 53.72 43.0873 53.7117 43.0771 53.7017 43.0683 53.6904 43.0613L52.6335 42.3898C52.5282 42.3234 52.483 42.1925 52.5246 42.0743 52.8498 41.1475 52.6709 39.2402 52.4238 38.289 52.3864 38.1418 52.4752 37.9924 52.6223 37.9548 52.6849 37.9389 52.7509 37.9456 52.8092 37.9735L53.3035 38.2126Z" stroke="#000000" stroke-width="0.325221" stroke-linecap="butt" stroke-linejoin="miter" stroke-miterlimit="4" stroke-opacity="1" fill="#97ACC1" fill-rule="nonzero" fill-opacity="1" transform="matrix(1 0 0 1.00079 256.78 156.723)"/><path d="M65.1992 45.3881C65.1419 45.3209 65.0757 45.2754 65.0009 45.2515 64.9012 45.219 64.8843 45.2445 64.9505 45.3279 64.9841 45.3691 65.0436 45.4097 65.1293 45.4499 65.0957 45.5713 64.9841 45.6353 64.7944 45.6418 64.3635 45.658 64.1342 45.7068 63.7521 45.4678 63.351 45.2185 62.9315 45.0076 62.4936 44.8353 62.4219 44.8066 62.3868 44.7253 62.4154 44.6536 62.4154 44.6535 62.4155 44.6533 62.4155 44.6531 62.7684 43.7865 63.3342 44.2759 63.8968 44.3605 64.944 44.5166 65.6984 44.7442 66.5098 45.5214 67.4984 46.4694 66.6789 47.2661 65.5992 47.2808 65.5649 47.2816 65.537 47.2541 65.5368 47.2193 65.5368 47.1967 65.5488 47.1754 65.5684 47.1637L66.022 46.9068C66.0662 46.8816 66.094 46.8346 66.0952 46.7832 66.1005 46.1491 65.802 45.684 65.1992 45.3881Z" stroke="#000000" stroke-width="0.325221" stroke-linecap="butt" stroke-linejoin="miter" stroke-miterlimit="4" stroke-opacity="1" fill="#36415B" fill-rule="nonzero" fill-opacity="1" transform="matrix(1 0 0 1.00079 256.78 156.723)"/><path d="M76.3325 44.2597 76.3325 44.5068C76.2142 44.5307 76.1173 44.5226 76.0414 44.4824 75.9873 44.4553 75.9736 44.4146 76.0008 44.3605 76.0647 44.2358 76.1752 44.2023 76.3325 44.2597Z" stroke="#000000" stroke-width="0.325221" stroke-linecap="butt" stroke-linejoin="miter" stroke-miterlimit="4" stroke-opacity="1" fill="#97ACC1" fill-rule="nonzero" fill-opacity="1" transform="matrix(1 0 0 1.00079 256.78 156.723)"/><path d="M65.1992 45.3881C65.1158 45.4206 65.0924 45.4413 65.1293 45.4499 65.0436 45.4097 64.9841 45.3691 64.9505 45.3279 64.8843 45.2445 64.9012 45.219 65.0009 45.2515 65.0757 45.2754 65.1419 45.3209 65.1992 45.3881Z" stroke="#000000" stroke-width="0.325221" stroke-linecap="butt" stroke-linejoin="miter" stroke-miterlimit="4" stroke-opacity="1" fill="#97ACC1" fill-rule="nonzero" fill-opacity="1" transform="matrix(1 0 0 1.00079 256.78 156.723)"/><path d="M80.9877 61.0871C79.7584 60.6042 78.7243 59.4253 78.0105 58.3619 76.8072 56.5685 76.4707 54.4547 76.6414 52.31 77.0528 50.2677 78.6462 49.2645 80.6186 49.0385 80.6305 49.0373 80.6376 49.0266 80.6397 49.0059 80.6418 48.982 80.6311 48.9702 80.6072 48.9702 79.5849 48.9876 78.584 49.1393 77.604 49.4254 77.5411 49.4438 77.5015 49.4845 77.4853 49.5474 77.3975 49.8889 77.2268 50.182 76.9731 50.4271 76.9308 50.4672 76.8809 50.4872 76.8235 50.4872L76.7308 50.4872C76.6625 50.4872 76.6191 50.5197 76.6007 50.5848L76.2219 51.9506C75.7975 55.5929 77.2381 59.9603 80.9649 61.318 81.688 61.6334 82.4506 61.8448 83.2527 61.9521 83.3068 61.9598 83.3166 61.9847 83.282 62.0269 83.1182 62.2307 82.9828 62.3554 82.8755 62.4009 78.1097 64.4009 72.8301 62.5846 70.9878 57.6091L70.6886 56.3327C70.2854 53.6802 70.9184 51.3327 72.5878 49.2905 74.8349 46.5426 78.6528 45.4759 81.9926 46.7653 85.6006 48.1588 87.8348 52.1376 87.3372 55.9327 87.0478 58.1327 85.586 60.2855 83.9438 61.6513 83.9015 61.6871 83.8522 61.7082 83.7958 61.7147 82.9194 61.8318 81.7877 61.4253 80.9877 61.0871ZM82.7324 47.7539C82.6457 47.6477 82.5356 47.5837 82.4023 47.5621 82.3449 47.5523 82.3036 47.5734 82.2787 47.6255 82.2116 47.7621 82.1329 47.839 82.043 47.8564 81.2613 48.0081 80.1644 48.1323 78.7519 48.2287 78.7097 48.2308 78.6767 48.2429 78.6528 48.2645 78.6256 48.2894 78.6045 48.316 78.5893 48.3442 78.5557 48.4071 78.5747 48.4368 78.6462 48.4336 80.0435 48.3762 81.4283 48.2064 82.8007 47.9247 82.8462 47.916 82.8613 47.8894 82.8462 47.845 82.8267 47.7908 82.7888 47.7604 82.7324 47.7539Z" stroke="#000000" stroke-width="0.325221" stroke-linecap="butt" stroke-linejoin="miter" stroke-miterlimit="4" stroke-opacity="1" fill="#FFFFFF" fill-rule="nonzero" fill-opacity="1" transform="matrix(1 0 0 1.00079 256.78 156.723)"/><path d="M82.7324 47.7539C82.7888 47.7604 82.8267 47.7908 82.8462 47.845 82.8613 47.8894 82.8462 47.916 82.8007 47.9247 81.4283 48.2064 80.0435 48.3762 78.6462 48.4336 78.5747 48.4368 78.5557 48.4071 78.5893 48.3442 78.6045 48.316 78.6256 48.2894 78.6528 48.2645 78.6767 48.2429 78.7097 48.2308 78.7519 48.2287 80.1644 48.1323 81.2613 48.0081 82.043 47.8564 82.1329 47.839 82.2116 47.7621 82.2787 47.6255 82.3036 47.5734 82.3449 47.5523 82.4023 47.5621 82.5356 47.5837 82.6457 47.6477 82.7324 47.7539Z" stroke="#000000" stroke-width="0.325221" stroke-linecap="butt" stroke-linejoin="miter" stroke-miterlimit="4" stroke-opacity="1" fill="#97ACC1" fill-rule="nonzero" fill-opacity="1" transform="matrix(1 0 0 1.00079 256.78 156.723)"/><path d="M76.6414 52.31C76.649 52.1355 76.6198 51.9836 76.5536 51.8547 76.5243 51.7983 76.4832 51.7869 76.43 51.8205L76.2219 51.9506 76.6007 50.5848C76.6191 50.5197 76.6625 50.4872 76.7308 50.4872L76.8235 50.4872C76.8809 50.4872 76.9308 50.4672 76.9731 50.4271 77.2268 50.182 77.3975 49.8889 77.4853 49.5474 77.5015 49.4845 77.5411 49.4438 77.604 49.4254 78.584 49.1393 79.5849 48.9876 80.6072 48.9702 80.6311 48.9702 80.6418 48.982 80.6397 49.0059 80.6376 49.0266 80.6305 49.0373 80.6186 49.0385 78.6462 49.2645 77.0528 50.2677 76.6414 52.31Z" stroke="#000000" stroke-width="0.325221" stroke-linecap="butt" stroke-linejoin="miter" stroke-miterlimit="4" stroke-opacity="1" fill="#97ACC1" fill-rule="nonzero" fill-opacity="1" transform="matrix(1 0 0 1.00079 256.78 156.723)"/><path d="M76.6414 52.31C76.4707 54.4547 76.8072 56.5685 78.0105 58.3619 78.7243 59.4253 79.7584 60.6042 80.9877 61.0871 80.9313 61.138 80.9238 61.2151 80.9649 61.318 77.2381 59.9603 75.7975 55.5929 76.2219 51.9506L76.43 51.8205C76.4832 51.7869 76.5243 51.7983 76.5536 51.8547 76.6198 51.9836 76.649 52.1355 76.6414 52.31Z" stroke="#000000" stroke-width="0.325221" stroke-linecap="butt" stroke-linejoin="miter" stroke-miterlimit="4" stroke-opacity="1" fill="#36415B" fill-rule="nonzero" fill-opacity="1" transform="matrix(1 0 0 1.00079 256.78 156.723)"/><path d="M69.1829 60.6839C69.5585 61.2806 70.0496 62.1781 70.6528 62.6318 70.6203 62.8811 70.7174 63.0297 70.9439 63.0773 70.998 63.0892 71.0377 63.1196 71.0626 63.1684 71.248 63.5277 71.352 64.1001 71.7601 64.2302 71.8122 64.2464 71.8528 64.2871 71.8691 64.3391 72.0138 64.7993 72.3748 65.0919 72.5813 65.4188 72.7645 65.7049 72.959 65.9862 73.165 66.2626 72.8496 66.2171 72.8268 65.9228 72.591 65.8692 72.4967 65.8475 72.4154 65.8773 72.3471 65.9586 72.3065 66.0085 72.3092 66.0805 72.3536 66.1261 72.7244 66.5017 73.2479 67.3261 73.7309 67.4935 73.745 67.5423 73.8317 67.596 73.991 67.6545 74.0333 67.6696 74.0377 67.6914 74.004 67.7196 73.9878 67.7337 73.9666 67.7369 73.9406 67.7293 73.487 67.6008 73.0463 67.4903 72.6252 67.2691 69.8273 65.7949 67.3428 64.2615 65.1716 62.6692 64.3965 62.1001 63.6811 61.3717 63.0253 60.4839 62.3733 59.6042 61.7034 57.9587 61.5684 56.9831 61.5297 56.6985 61.6799 56.4224 61.9391 56.3018 62.4606 56.06 62.9728 55.8265 63.4757 55.601 63.8172 55.4481 64.1082 55.1197 64.6318 55.1473 65.5217 55.1929 66.4111 55.2281 67.3 55.253 67.3509 55.2551 67.3797 55.2812 67.3862 55.3311 67.6431 57.2346 68.242 59.0188 69.1829 60.6839Z" stroke="#000000" stroke-width="0.325221" stroke-linecap="butt" stroke-linejoin="miter" stroke-miterlimit="4" stroke-opacity="1" fill="#FFFFFF" fill-rule="nonzero" fill-opacity="1" transform="matrix(1 0 0 1.00079 256.78 156.723)"/><path d="M70.6886 56.3327 70.9878 57.6091C70.4914 57.3371 70.0589 56.9901 69.6903 56.5685 69.6685 56.5446 69.6701 56.5076 69.694 56.4857 69.7029 56.4776 69.714 56.4724 69.726 56.4709L70.6886 56.3327Z" stroke="#000000" stroke-width="0.325221" stroke-linecap="butt" stroke-linejoin="miter" stroke-miterlimit="4" stroke-opacity="1" fill="#36415B" fill-rule="nonzero" fill-opacity="1" transform="matrix(1 0 0 1.00079 256.78 156.723)"/><path d="M26.9851 60.7733C27.009 60.7289 27.0371 60.6985 27.0696 60.6822 27.1542 60.705 27.2203 60.6925 27.268 60.6448 27.3114 60.6014 27.3228 60.5456 27.3021 60.4774 27.2729 60.3787 27.1997 60.3289 27.0826 60.3278L26.9981 60.2839C27.0262 60.2253 27.0821 60.1787 27.1655 60.144 27.2236 60.1195 27.2909 60.1426 27.3216 60.1977 27.6089 60.7115 27.726 61.2655 27.6729 61.8595 27.6675 61.9201 27.6343 61.9451 27.5737 61.9342 27.0013 61.8334 27.5054 61.2107 27.4371 60.9603 27.3981 60.8128 27.2473 60.7505 26.9851 60.7733Z" stroke="#000000" stroke-width="0.325221" stroke-linecap="butt" stroke-linejoin="miter" stroke-miterlimit="4" stroke-opacity="1" fill="#36415B" fill-rule="nonzero" fill-opacity="1" transform="matrix(1 0 0 1.00079 256.78 156.723)"/><path d="M27.0826 60.3278C27.1997 60.3289 27.2729 60.3787 27.3021 60.4774 27.3228 60.5456 27.3114 60.6014 27.268 60.6448 27.2203 60.6925 27.1542 60.705 27.0696 60.6822 27.0187 60.6009 27.0229 60.4827 27.0826 60.3278Z" stroke="#000000" stroke-width="0.325221" stroke-linecap="butt" stroke-linejoin="miter" stroke-miterlimit="4" stroke-opacity="1" fill="#97ACC1" fill-rule="nonzero" fill-opacity="1" transform="matrix(1 0 0 1.00079 256.78 156.723)"/><path d="M69.1829 60.6839C69.9395 61.138 70.4296 61.7874 70.6528 62.6318 70.0496 62.1781 69.5585 61.2806 69.1829 60.6839Z" stroke="#000000" stroke-width="0.325221" stroke-linecap="butt" stroke-linejoin="miter" stroke-miterlimit="4" stroke-opacity="1" fill="#36415B" fill-rule="nonzero" fill-opacity="1" transform="matrix(1 0 0 1.00079 256.78 156.723)"/><path d="M89.3128 61.4952C89.6217 61.6242 89.8505 61.7489 89.999 61.8692 92.2928 63.7326 94.5583 65.629 96.7956 67.5586 97.7875 68.4138 100.105 69.4203 98.8623 71.1032 98.2888 71.8805 97.5132 72.2431 96.5355 72.191 96.4813 72.1889 96.4293 72.1707 96.3859 72.139 95.7973 71.7044 95.2217 71.254 94.6591 70.7878 92.3241 68.8582 90.012 66.9022 87.7226 64.9196 87.4515 64.6843 87.0896 64.4232 86.6364 64.1358 86.4522 63.7412 86.1795 63.4167 85.8185 63.1619 85.4141 62.8768 85.1128 62.6313 84.9145 62.4253 84.8668 62.3765 84.8711 62.3331 84.9275 62.2952 85.2657 62.0708 86.5275 61.3603 86.9519 61.6432 86.9953 61.6725 87.0424 61.6908 87.0933 61.6985 87.3816 61.7408 87.6554 61.6985 87.9144 61.5717 87.9653 61.5468 88.0152 61.5477 88.064 61.5749 88.5149 61.8209 88.9312 61.7944 89.3128 61.4952Z" stroke="#000000" stroke-width="0.325221" stroke-linecap="butt" stroke-linejoin="miter" stroke-miterlimit="4" stroke-opacity="1" fill="#FFFFFF" fill-rule="nonzero" fill-opacity="1" transform="matrix(1 0 0 1.00079 256.78 156.723)"/><path d="M31.4549 66.2041C31.4509 66.2254 31.4309 66.2396 31.4094 66.2366L31.385 66.2334C31.2047 66.2027 31.0832 66.0324 31.1135 65.8529L31.1167 65.8301C31.1473 65.6505 31.3183 65.5297 31.4988 65.5602L31.5232 65.5635C31.5452 65.5675 31.5596 65.5887 31.5557 65.6106L31.4549 66.2041Z" stroke="#000000" stroke-width="0.325221" stroke-linecap="butt" stroke-linejoin="miter" stroke-miterlimit="4" stroke-opacity="1" fill="#36415B" fill-rule="nonzero" fill-opacity="1" transform="matrix(1 0 0 1.00079 256.78 156.723)"/><path d="M73.165 66.2626C73.4653 66.6378 73.6539 67.048 73.7309 67.4935 73.2479 67.3261 72.7244 66.5017 72.3536 66.1261 72.3092 66.0805 72.3065 66.0085 72.3471 65.9586 72.4154 65.8773 72.4967 65.8475 72.591 65.8692 72.8268 65.9228 72.8496 66.2171 73.165 66.2626Z" stroke="#000000" stroke-width="0.325221" stroke-linecap="butt" stroke-linejoin="miter" stroke-miterlimit="4" stroke-opacity="1" fill="#36415B" fill-rule="nonzero" fill-opacity="1" transform="matrix(1 0 0 1.00079 256.78 156.723)"/></g></g></g></g></g></svg>